<?xml version="1.0" encoding="UTF-8"?>
<svg id="Layer_1" data-name="Layer 1" xmlns="http://www.w3.org/2000/svg" viewBox="0 0 72.25 72.25">
  <defs>
    <style>
      .cls-1 {
        fill: none;
        stroke: #603913;
      }

      .cls-1, .cls-2 {
        stroke-miterlimit: 10;
      }

      .cls-2 {
        fill: #dfbd8e;
        stroke: #231f20;
        stroke-width: .25px;
      }
    </style>
  </defs>
  <rect class="cls-2" x=".12" y=".12" width="72" height="72"/>
  <path class="cls-1" d="M.12,49.32c12.57,0,22.8,10.23,22.8,22.8"/>
  <path class="cls-1" d="M34.93,72.13c0-19.19-15.61-34.8-34.8-34.8"/>
  <path class="cls-1" d="M55.75,46.52c-3.96,6.73-6.43,15.79-6.43,25.6"/>
  <path class="cls-1" d="M72.12,34.93c-2.32,0-4.57.6-6.69,1.71"/>
  <path class="cls-1" d="M52.14,31.69c5.77-5.7,12.67-8.76,19.99-8.76"/>
  <path class="cls-1" d="M37.32,72.12c0-11.41,2.7-22.27,7.66-30.98"/>
  <path class="cls-1" d="M40.68,19.99c6.6,10.41,18.23,17.34,31.44,17.34"/>
  <path class="cls-1" d="M34.93.13c0,2.33.22,4.61.63,6.82"/>
  <path class="cls-1" d="M25.72,16.5c-1.81-5.12-2.8-10.63-2.8-16.37"/>
  <path class="cls-1" d="M72.12,49.32c-17.09,0-32.17-8.76-40.99-22.02"/>
  <path class="cls-1" d="M.13,22.93c20.16,0,37.2-10.44,37.2-22.8"/>
  <path class="cls-1" d="M49.32.13c0,9.76-5.44,18.77-15.32,25.36C24.87,31.57,12.84,34.93.13,34.93"/>
</svg>