<?xml version="1.0" encoding="UTF-8" standalone="no"?>
<!DOCTYPE svg PUBLIC "-//W3C//DTD SVG 1.1//EN" "http://www.w3.org/Graphics/SVG/1.1/DTD/svg11.dtd">
<svg width="100%" height="100%" viewBox="0 0 847 335" version="1.1" xmlns="http://www.w3.org/2000/svg" xmlns:xlink="http://www.w3.org/1999/xlink" xml:space="preserve" xmlns:serif="http://www.serif.com/" style="fill-rule:evenodd;clip-rule:evenodd;stroke-linejoin:round;stroke-miterlimit:2;">
    <g transform="matrix(1,0,0,1,-794.75,-565.836)">
        <g transform="matrix(0.531704,0,0,0.383394,791.967,568.424)">
            <path d="M25.53,85.966C28.713,85.966 31.828,85.245 34.874,83.801C37.92,82.358 40.621,80.469 42.978,78.134L46.284,88.577C43.284,91.422 39.856,93.714 35.999,95.455C32.142,97.195 28.208,98.065 24.198,98.065C18.168,98.065 13.5,95.9 10.194,91.57C6.888,87.24 5.235,81.148 5.235,73.294C5.235,64.167 6.382,56.218 8.678,49.447C10.974,42.675 14.196,37.411 18.344,33.654C22.492,29.897 27.351,28.019 32.922,28.019C37.942,28.019 41.937,29.122 44.907,31.33C47.876,33.538 50.126,37.104 51.656,42.028L44.539,49.861C42.947,46.464 41.126,43.991 39.075,42.442C37.024,40.892 34.545,40.118 31.637,40.118C28.331,40.118 25.43,41.434 22.935,44.066C20.441,46.698 18.512,50.391 17.15,55.146C15.788,59.901 15.091,65.483 15.061,71.893C15.091,76.351 16.017,79.811 17.839,82.273C19.66,84.735 22.224,85.966 25.53,85.966Z" style="fill-rule:nonzero;"/>
            <path d="M78.15,98.065C72.732,98.065 68.5,95.911 65.454,91.602C62.408,87.293 60.886,81.297 60.886,73.613C60.886,59.264 63.197,48.078 67.819,40.054C72.441,32.03 78.854,28.019 87.058,28.019C92.476,28.019 96.708,30.226 99.754,34.641C102.8,39.056 104.323,45.212 104.323,53.108C104.323,67.245 102.019,78.272 97.412,86.189C92.805,94.107 86.385,98.065 78.15,98.065ZM79.849,86.03C84.441,86.03 88.03,83.366 90.617,78.038C93.203,72.711 94.497,65.313 94.497,55.846C94.497,50.922 93.731,47.069 92.201,44.289C90.67,41.508 88.512,40.118 85.726,40.118C81.012,40.118 77.331,42.771 74.683,48.078C72.036,53.384 70.712,60.771 70.712,70.238C70.712,75.205 71.515,79.079 73.122,81.859C74.729,84.64 76.972,86.03 79.849,86.03Z" style="fill-rule:nonzero;"/>
            <path d="M113.644,96.792L122.23,29.292L130.357,29.292L130.036,45.403L123.516,96.792L113.644,96.792ZM143.398,96.792L149.046,51.898C149.535,47.993 149.329,45.053 148.426,43.079C147.523,41.105 145.908,40.118 143.581,40.118C141.102,40.118 138.806,41.115 136.694,43.111C134.582,45.106 132.676,48.428 130.977,53.076C129.278,57.725 127.832,64.018 126.638,71.957L128.934,44.639L130.954,44.639C131.934,39.332 133.878,35.236 136.786,32.349C139.694,29.462 143.184,28.019 147.255,28.019C152.183,28.019 155.619,30.067 157.563,34.164C159.507,38.26 159.958,44.342 158.918,52.408L153.27,96.792L143.398,96.792Z" style="fill-rule:nonzero;"/>
            <path d="M187.845,98.065C183.866,98.065 180.208,97.726 176.871,97.047C173.534,96.367 170.81,95.433 168.698,94.245L171.361,82.018C174.912,83.25 178.256,84.215 181.394,84.916C184.531,85.616 187.202,85.966 189.406,85.966C193.416,85.966 196.531,85.234 198.75,83.77C200.97,82.305 202.079,80.235 202.079,77.561C202.079,76.245 201.704,75.024 200.954,73.899C200.204,72.774 199.125,71.893 197.717,71.257L183.942,64.825C180.912,63.424 178.585,61.45 176.963,58.903C175.34,56.356 174.529,53.49 174.529,50.306C174.529,43.217 176.695,37.73 181.027,33.845C185.358,29.961 191.488,28.019 199.416,28.019C202.202,28.019 205.056,28.189 207.98,28.528C210.903,28.868 213.65,29.335 216.222,29.929L213.742,41.646C210.865,41.179 208.056,40.808 205.316,40.532C202.577,40.256 200.151,40.118 198.039,40.118C193.692,40.118 190.332,40.892 187.96,42.442C185.588,43.991 184.401,46.188 184.401,49.033C184.401,50.052 184.692,50.975 185.274,51.803C185.855,52.631 186.713,53.278 187.845,53.745L201.85,59.922C205.094,61.365 207.582,63.498 209.311,66.322C211.041,69.145 211.905,72.382 211.905,76.033C211.905,83.037 209.809,88.461 205.615,92.303C201.421,96.144 195.498,98.065 187.845,98.065Z" style="fill-rule:nonzero;"/>
            <path d="M250.2,98.065C244.568,98.065 240.427,96.399 237.78,93.067C235.132,89.734 233.808,84.544 233.808,77.497C233.808,75.714 233.869,74.005 233.991,72.371C234.114,70.737 234.305,68.901 234.565,66.863C234.826,64.825 235.139,62.32 235.507,59.349L241.889,8.915L251.761,8.915L245.379,59.349C244.858,63.594 244.437,66.863 244.116,69.155C243.795,71.448 243.634,73.804 243.634,76.224C243.634,79.577 244.307,82.04 245.654,83.61C247.001,85.181 249.113,85.966 251.991,85.966C254.225,85.966 256.184,85.712 257.868,85.202C259.552,84.693 261.557,83.78 263.883,82.464L265.674,93.353C263.47,94.669 261.136,95.784 258.672,96.696C256.207,97.609 253.384,98.065 250.2,98.065ZM226.415,41.137L227.93,29.292L270.817,29.292L269.301,41.137L226.415,41.137Z" style="fill-rule:nonzero;"/>
            <path d="M353.145,98.065C349.166,98.065 345.508,97.726 342.171,97.047C338.834,96.367 336.11,95.433 333.998,94.245L336.661,82.018C340.212,83.25 343.556,84.215 346.694,84.916C349.832,85.616 352.502,85.966 354.706,85.966C358.716,85.966 361.831,85.234 364.05,83.77C366.27,82.305 367.379,80.235 367.379,77.561C367.379,76.245 367.004,75.024 366.254,73.899C365.504,72.774 364.425,71.893 363.017,71.257L349.242,64.825C346.212,63.424 343.885,61.45 342.263,58.903C340.641,56.356 339.829,53.49 339.829,50.306C339.829,43.217 341.995,37.73 346.327,33.845C350.658,29.961 356.788,28.019 364.716,28.019C367.502,28.019 370.356,28.189 373.28,28.528C376.203,28.868 378.95,29.335 381.522,29.929L379.042,41.646C376.165,41.179 373.356,40.808 370.616,40.532C367.877,40.256 365.451,40.118 363.339,40.118C358.992,40.118 355.632,40.892 353.26,42.442C350.888,43.991 349.701,46.188 349.701,49.033C349.701,50.052 349.992,50.975 350.574,51.803C351.155,52.631 352.013,53.278 353.145,53.745L367.15,59.922C370.395,61.365 372.882,63.498 374.611,66.322C376.341,69.145 377.206,72.382 377.206,76.033C377.206,83.037 375.109,88.461 370.915,92.303C366.721,96.144 360.798,98.065 353.145,98.065Z" style="fill-rule:nonzero;"/>
            <path d="M429.596,98.065C423.872,98.065 419.296,95.624 415.867,90.742C412.439,85.86 410.25,78.856 409.301,69.728C415.423,65.653 419.633,61.577 421.928,57.502C424.224,53.427 425.372,49.648 425.372,46.167C425.372,42.134 423.719,40.118 420.413,40.118C418.638,40.118 416.801,40.786 414.903,42.124C413.005,43.461 411.199,45.414 409.485,47.982C407.771,50.55 406.271,53.692 404.985,57.406C403.699,61.121 402.766,65.335 402.184,70.047L404.296,47.186L406.087,47.186C406.761,43.323 407.908,39.958 409.531,37.093C411.153,34.227 413.135,31.999 415.477,30.407C417.819,28.815 420.383,28.019 423.168,28.019C426.811,28.019 429.727,29.547 431.915,32.604C434.104,35.66 435.198,39.714 435.198,44.766C435.198,51.559 433.752,57.523 430.859,62.66C427.966,67.797 423.903,72.254 418.668,76.033L418.209,66.29C419.189,73.549 420.62,78.643 422.502,81.573C424.385,84.502 427.117,85.966 430.698,85.966C431.586,85.966 432.283,85.935 432.788,85.871C433.293,85.807 433.836,85.733 434.418,85.648L435.29,97.174C434.433,97.429 433.561,97.641 432.673,97.811C431.785,97.981 430.76,98.065 429.596,98.065ZM388.914,96.728L398.603,20.568C399.001,17.299 398.871,14.922 398.212,13.436C397.554,11.95 396.292,11.207 394.424,11.207C393.659,11.207 392.901,11.261 392.151,11.367C391.401,11.473 390.644,11.653 389.879,11.908L388.822,0.955C389.986,0.573 391.149,0.308 392.312,0.159C393.475,0.011 394.639,-0.064 395.802,-0.064C401.128,-0.064 404.771,1.719 406.73,5.285C408.689,8.851 409.179,14.582 408.199,22.479L398.786,96.728L388.914,96.728Z" style="fill-rule:nonzero;"/>
            <path d="M467.753,85.966C470.202,85.966 472.819,85.436 475.605,84.374C478.391,83.313 481.069,81.827 483.64,79.917L486.809,90.806C483.809,93.098 480.595,94.882 477.166,96.155C473.738,97.429 470.462,98.065 467.34,98.065C461.034,98.065 456.113,95.773 452.578,91.188C449.042,86.603 447.274,80.214 447.274,72.021C447.274,63.191 448.476,55.486 450.879,48.905C453.282,42.325 456.641,37.199 460.958,33.527C465.274,29.855 470.309,28.019 476.064,28.019C480.595,28.019 484.123,29.589 486.648,32.731C489.173,35.872 490.436,40.245 490.436,45.849C490.436,54.169 487.367,60.728 481.23,65.526C475.092,70.323 466.529,72.87 455.539,73.167L454.575,62.978C462.779,62.809 469.169,61.302 473.745,58.457C478.322,55.613 480.61,51.686 480.61,46.677C480.61,44.639 480.105,43.036 479.095,41.869C478.084,40.701 476.646,40.118 474.778,40.118C471.136,40.118 467.929,41.412 465.159,44.002C462.389,46.592 460.231,50.221 458.685,54.891C457.139,59.561 456.351,65.016 456.32,71.257C456.351,75.884 457.376,79.492 459.396,82.082C461.417,84.672 464.202,85.966 467.753,85.966Z" style="fill-rule:nonzero;"/>
            <path d="M525.7,98.065C520.068,98.065 515.927,96.399 513.28,93.067C510.632,89.734 509.308,84.544 509.308,77.497C509.308,75.714 509.369,74.005 509.491,72.371C509.614,70.737 509.805,68.901 510.065,66.863C510.326,64.825 510.639,62.32 511.007,59.349L517.389,8.915L527.261,8.915L520.879,59.349C520.358,63.594 519.938,66.863 519.616,69.155C519.295,71.448 519.134,73.804 519.134,76.224C519.134,79.577 519.807,82.04 521.154,83.61C522.501,85.181 524.613,85.966 527.491,85.966C529.725,85.966 531.685,85.712 533.368,85.202C535.052,84.693 537.057,83.78 539.383,82.464L541.174,93.353C538.97,94.669 536.636,95.784 534.172,96.696C531.707,97.609 528.884,98.065 525.7,98.065ZM501.915,41.137L503.43,29.292L546.317,29.292L544.801,41.137L501.915,41.137Z" style="fill-rule:nonzero;"/>
            <path d="M576.53,85.966C579.713,85.966 582.828,85.245 585.874,83.801C588.92,82.358 591.621,80.469 593.978,78.134L597.284,88.577C594.284,91.422 590.856,93.714 586.999,95.455C583.142,97.195 579.208,98.065 575.198,98.065C569.168,98.065 564.5,95.9 561.194,91.57C557.888,87.24 556.235,81.148 556.235,73.294C556.235,64.167 557.383,56.218 559.678,49.447C561.974,42.675 565.196,37.411 569.344,33.654C573.492,29.897 578.351,28.019 583.922,28.019C588.943,28.019 592.937,29.122 595.907,31.33C598.876,33.538 601.126,37.104 602.656,42.028L595.539,49.861C593.948,46.464 592.126,43.991 590.075,42.442C588.024,40.892 585.545,40.118 582.637,40.118C579.331,40.118 576.43,41.434 573.936,44.066C571.441,46.698 569.512,50.391 568.15,55.146C566.788,59.901 566.091,65.483 566.061,71.893C566.091,76.351 567.017,79.811 568.839,82.273C570.66,84.735 573.224,85.966 576.53,85.966Z" style="fill-rule:nonzero;"/>
            <path d="M639.298,96.792L644.946,51.898C645.435,47.993 645.229,45.053 644.326,43.079C643.423,41.105 641.808,40.118 639.482,40.118C636.971,40.118 634.645,41.115 632.502,43.111C630.359,45.106 628.439,48.428 626.74,53.076C625.041,57.725 623.579,64.018 622.355,71.957L624.651,44.639L626.671,44.639C627.65,39.332 629.617,35.236 632.571,32.349C635.525,29.462 639.053,28.019 643.155,28.019C648.083,28.019 651.519,30.067 653.463,34.164C655.407,38.26 655.859,44.342 654.818,52.408L649.17,96.792L639.298,96.792ZM609.268,96.792L618.911,21.205C619.339,17.936 619.217,15.559 618.544,14.073C617.87,12.587 616.6,11.844 614.732,11.844C613.967,11.844 613.21,11.897 612.46,12.003C611.71,12.11 610.952,12.29 610.187,12.545L609.222,0.955C610.386,0.573 611.549,0.308 612.712,0.159C613.875,0.011 615.039,-0.064 616.202,-0.064C621.528,-0.064 625.179,1.719 627.153,5.285C629.127,8.851 629.61,14.582 628.599,22.479L619.14,96.792L609.268,96.792Z" style="fill-rule:nonzero;"/>
            <path d="M723.601,41.646L725.116,29.802L771.033,29.802L769.518,41.646L723.601,41.646ZM719.56,73.485L721.076,61.641L766.992,61.641L765.477,73.485L719.56,73.485Z" style="fill-rule:nonzero;"/>
            <path d="M881.095,-6.368L879.672,5.094L878.019,5.094C873.274,5.094 869.011,6.952 865.231,10.666C861.45,14.381 858.282,19.73 855.726,26.713C853.17,33.697 851.341,42.113 850.239,51.962C848.647,66.438 849.26,77.741 852.076,85.871C854.892,94.001 859.591,98.065 866.172,98.065L867.825,98.065L866.356,109.528L863.83,109.528C857.433,109.528 852.244,107.087 848.265,102.205C844.285,97.323 841.63,90.307 840.298,81.159C838.967,72.01 839.066,61.004 840.597,48.141C841.637,39.566 843.267,31.914 845.487,25.185C847.706,18.456 850.446,12.746 853.706,8.055C856.966,3.364 860.685,-0.212 864.864,-2.675C869.042,-5.137 873.595,-6.368 878.524,-6.368L881.095,-6.368Z" style="fill-rule:nonzero;"/>
            <path d="M891.197,126.084L881.325,126.084L893.584,29.292L901.804,29.292L901.482,45.276L891.197,126.084ZM898.36,98.065C896.125,98.065 893.906,97.949 891.702,97.715C889.498,97.482 887.279,97.153 885.044,96.728L889.636,84.374C891.625,85.436 894.87,85.966 899.37,85.966C903.992,85.966 908.14,84.438 911.813,81.382C915.487,78.325 918.387,74.154 920.515,68.869C922.642,63.583 923.706,57.608 923.706,50.943C923.706,47.504 923.14,44.841 922.007,42.951C920.874,41.062 919.267,40.118 917.186,40.118C914.645,40.118 912.089,41.221 909.518,43.429C906.946,45.637 904.635,49.096 902.584,53.809C900.533,58.521 899.018,64.613 898.038,72.084L899.829,44.639L903.824,44.639L901.207,49.478C902.309,42.644 904.574,37.358 908.002,33.622C911.431,29.887 915.716,28.019 920.859,28.019C924.869,28.019 927.984,29.791 930.203,33.336C932.422,36.881 933.532,41.901 933.532,48.396C933.532,55.486 932.652,62.044 930.892,68.073C929.132,74.101 926.66,79.365 923.476,83.865C920.293,88.365 916.566,91.857 912.296,94.34C908.025,96.824 903.38,98.065 898.36,98.065Z" style="fill-rule:nonzero;"/>
            <path d="M959.475,98.065C952.802,98.065 947.896,95.72 944.759,91.029C941.621,86.338 940.588,79.811 941.659,71.448L951.485,71.448C950.904,76.117 951.501,79.768 953.276,82.4C955.052,85.033 957.807,86.349 961.541,86.349C966.408,86.349 970.212,84.417 972.951,80.554C975.691,76.691 977.061,71.299 977.061,64.379C977.061,59.625 976.051,55.921 974.031,53.267C972.01,50.614 969.194,49.287 965.582,49.287C961.266,49.287 957.087,50.688 953.047,53.49L954.332,42.665C957.148,40.67 959.881,39.322 962.528,38.621C965.176,37.921 967.755,37.571 970.265,37.571C975.5,37.571 979.579,39.863 982.502,44.448C985.425,49.033 986.887,55.401 986.887,63.552C986.887,74.419 984.469,82.889 979.632,88.959C974.796,95.03 968.077,98.065 959.475,98.065ZM947.904,53.49L953.873,6.368L963.699,6.368L958.786,45.594L953.047,53.49L947.904,53.49ZM956.766,18.212L957.455,6.368L989.964,6.368L988.448,18.212L956.766,18.212Z" style="fill-rule:nonzero;"/>
            <path d="M1022.56,46.868C1020.7,46.868 1019.1,45.944 1017.77,44.098C1016.44,42.251 1015.77,40.033 1015.77,37.443C1015.77,34.811 1016.44,32.582 1017.77,30.757C1019.1,28.931 1020.7,28.019 1022.56,28.019C1024.46,28.019 1026.07,28.931 1027.39,30.757C1028.7,32.582 1029.36,34.811 1029.36,37.443C1029.36,40.033 1028.7,42.251 1027.39,44.098C1026.07,45.944 1024.46,46.868 1022.56,46.868ZM1016.14,98.065C1014.27,98.065 1012.67,97.142 1011.34,95.295C1010.01,93.449 1009.34,91.231 1009.34,88.641C1009.34,86.009 1010.01,83.78 1011.34,81.955C1012.67,80.129 1014.27,79.217 1016.14,79.217C1018.03,79.217 1019.64,80.129 1020.96,81.955C1022.27,83.78 1022.93,86.009 1022.93,88.641C1022.93,91.231 1022.27,93.449 1020.96,95.295C1019.64,97.142 1018.03,98.065 1016.14,98.065Z" style="fill-rule:nonzero;"/>
            <path d="M1117.93,98.129C1113.77,98.129 1110.56,96.473 1108.29,93.162C1106.03,89.851 1104.89,85.181 1104.89,79.153C1104.89,71.511 1106.06,64.581 1108.41,58.362C1110.75,52.142 1114.03,46.825 1118.26,42.41C1122.48,37.995 1127.42,34.599 1133.09,32.222C1138.75,29.844 1144.9,28.655 1151.54,28.655L1152.46,28.655L1146.4,76.606C1145.97,80.002 1146.16,82.464 1146.98,83.992C1147.79,85.521 1149.54,86.285 1152.23,86.285L1154.12,86.285L1152.74,97.429L1149.48,97.429C1147.12,97.429 1145.15,97.1 1143.58,96.442C1142,95.784 1140.78,94.744 1139.9,93.321C1139.03,91.899 1138.47,90.021 1138.23,87.686C1137.98,85.351 1138.01,82.507 1138.32,79.153L1140.98,80.808L1135.66,80.808L1138.09,77.115C1136.41,83.78 1133.81,88.949 1130.29,92.621C1126.77,96.293 1122.65,98.129 1117.93,98.129ZM1120.92,86.03C1125.33,86.03 1129.17,83.271 1132.44,77.752C1135.72,72.233 1138.01,64.422 1139.33,54.318L1141.72,35.851L1145.44,40.754C1141.15,41.009 1137.15,42.113 1133.43,44.066C1129.71,46.019 1126.45,48.64 1123.65,51.93C1120.85,55.22 1118.66,59.041 1117.08,63.392C1115.51,67.744 1114.72,72.467 1114.72,77.561C1114.72,80.278 1115.26,82.369 1116.35,83.833C1117.44,85.298 1118.96,86.03 1120.92,86.03Z" style="fill-rule:nonzero;"/>
            <path d="M1160.54,96.792L1169.13,29.292L1177.26,29.292L1176.94,45.403L1170.42,96.792L1160.54,96.792ZM1190.3,96.792L1195.95,51.898C1196.44,47.993 1196.23,45.053 1195.33,43.079C1194.42,41.105 1192.81,40.118 1190.48,40.118C1188,40.118 1185.71,41.115 1183.59,43.111C1181.48,45.106 1179.58,48.428 1177.88,53.076C1176.18,57.725 1174.73,64.018 1173.54,71.957L1175.83,44.639L1177.86,44.639C1178.83,39.332 1180.78,35.236 1183.69,32.349C1186.59,29.462 1190.08,28.019 1194.15,28.019C1199.08,28.019 1202.52,30.067 1204.46,34.164C1206.41,38.26 1206.86,44.342 1205.82,52.408L1200.17,96.792L1190.3,96.792Z" style="fill-rule:nonzero;"/>
            <path d="M1212.34,126.848L1208.25,115.704C1215.23,111.502 1221.38,106.673 1226.69,101.218C1232,95.762 1236.57,89.554 1240.42,82.591C1244.26,75.629 1247.43,67.744 1249.94,58.935C1252.45,50.126 1254.4,40.245 1255.78,29.292L1265.6,29.292C1263.31,45.806 1259.92,60.208 1255.45,72.498C1250.99,84.788 1245.22,95.348 1238.17,104.179C1231.11,113.009 1222.5,120.565 1212.34,126.848ZM1227.08,28.019C1231.58,53.49 1237.52,72.785 1244.89,85.903L1236.4,93.544C1232.57,85.521 1229.04,76.181 1225.82,65.526C1222.59,54.87 1219.62,42.792 1216.93,29.292L1227.08,28.019Z" style="fill-rule:nonzero;"/>
            <path d="M1270.7,109.528L1272.12,98.065L1273.41,98.065C1278.27,98.065 1282.64,96.208 1286.49,92.494C1290.35,88.779 1293.58,83.43 1296.18,76.446C1298.78,69.463 1300.62,61.047 1301.69,51.198C1303.31,36.721 1302.67,25.418 1299.76,17.289C1296.86,9.159 1292.02,5.094 1285.25,5.094L1284.01,5.094L1285.44,-6.368L1287.6,-6.368C1293.93,-6.368 1299.1,-3.98 1303.09,0.796C1307.09,5.572 1309.8,12.439 1311.24,21.396C1312.68,30.354 1312.71,41.137 1311.33,53.745C1310.38,62.533 1308.81,70.376 1306.61,77.274C1304.4,84.173 1301.65,90.021 1298.34,94.818C1295.03,99.615 1291.25,103.266 1286.98,105.771C1282.7,108.275 1278.01,109.528 1272.9,109.528L1270.7,109.528Z" style="fill-rule:nonzero;"/>
            <path d="M1384.8,41.646L1386.32,29.802L1432.23,29.802L1430.72,41.646L1384.8,41.646ZM1380.76,73.485L1382.28,61.641L1428.19,61.641L1426.68,73.485L1380.76,73.485Z" style="fill-rule:nonzero;"/>
            <path d="M1436.73,83.165L1438.62,68.455L1473.05,51.835L1473.14,50.688L1443.07,33.431L1444.77,20.123L1485.54,45.212L1483.89,58.075L1436.73,83.165Z" style="fill-rule:nonzero;"/>
            <path d="M1574.25,110.419C1571.44,110.419 1568.92,109.591 1566.7,107.936C1564.48,106.28 1562.84,103.913 1561.79,100.835C1560.73,97.758 1560.51,94.096 1561.12,89.851C1561.55,86.964 1562.14,84.481 1562.89,82.4C1563.64,80.32 1564.42,78.421 1565.23,76.701C1566.04,74.982 1566.72,73.252 1567.27,71.511C1567.83,69.771 1568.1,67.797 1568.1,65.589C1568.1,63.339 1567.34,61.588 1565.81,60.336C1564.27,59.083 1562.48,58.192 1560.41,57.661C1558.34,57.131 1556.48,56.865 1554.83,56.865L1556.12,46.804C1561.5,46.804 1565.51,45.382 1568.15,42.537C1570.78,39.693 1572.1,35.13 1572.1,28.847C1572.1,26.554 1571.97,24.272 1571.73,22.001C1571.48,19.73 1571.28,17.533 1571.13,15.41C1570.83,10.868 1571.41,6.941 1572.88,3.63C1574.35,0.318 1576.5,-2.239 1579.33,-4.044C1582.16,-5.848 1585.44,-6.75 1589.18,-6.75C1590.95,-6.75 1592.43,-6.633 1593.61,-6.4C1594.79,-6.166 1595.85,-5.858 1596.8,-5.476L1594.32,5.604C1593.31,5.391 1592.33,5.232 1591.38,5.126C1590.43,5.02 1589.56,4.967 1588.76,4.967C1587.08,4.967 1585.62,5.434 1584.4,6.368C1583.18,7.302 1582.27,8.66 1581.67,10.443C1581.07,12.226 1580.84,14.413 1580.96,17.002C1581.08,19.125 1581.29,21.396 1581.58,23.816C1581.87,26.236 1582.01,28.847 1582.01,31.648C1582.01,44.129 1576.67,50.497 1565.99,50.752L1565.71,52.917C1569.63,53.002 1572.65,54.074 1574.76,56.133C1576.87,58.192 1577.93,60.983 1577.93,64.507C1577.93,67.054 1577.66,69.293 1577.12,71.225C1576.59,73.156 1575.92,75.024 1575.13,76.829C1574.33,78.633 1573.55,80.575 1572.78,82.655C1572.02,84.735 1571.41,87.198 1570.95,90.042C1570.52,92.716 1570.9,94.828 1572.1,96.378C1573.29,97.927 1574.85,98.702 1576.78,98.702C1577.58,98.702 1578.47,98.639 1579.47,98.511C1580.46,98.384 1581.48,98.235 1582.52,98.065L1582.24,109.146C1581.2,109.528 1580.05,109.835 1578.8,110.069C1577.54,110.302 1576.03,110.419 1574.25,110.419Z" style="fill-rule:nonzero;"/>
            <path d="M119.797,310.838L109.925,310.838L122.184,214.046L130.403,214.046L130.082,230.029L119.797,310.838ZM126.96,282.819C124.725,282.819 122.506,282.702 120.302,282.469C118.098,282.235 115.878,281.906 113.644,281.482L118.235,269.128C120.225,270.189 123.47,270.72 127.97,270.72C132.592,270.72 136.74,269.192 140.413,266.135C144.087,263.079 146.987,258.908 149.114,253.622C151.242,248.337 152.306,242.362 152.306,235.697C152.306,232.258 151.739,229.594 150.607,227.705C149.474,225.816 147.867,224.871 145.785,224.871C143.245,224.871 140.689,225.975 138.117,228.183C135.546,230.39 133.235,233.85 131.184,238.562C129.133,243.274 127.618,249.366 126.638,256.838L128.429,229.392L132.424,229.392L129.806,234.232C130.908,227.397 133.174,222.112 136.602,218.376C140.031,214.64 144.316,212.772 149.459,212.772C153.469,212.772 156.584,214.545 158.803,218.089C161.022,221.634 162.132,226.654 162.132,233.15C162.132,240.239 161.252,246.798 159.492,252.826C157.731,258.855 155.26,264.119 152.076,268.619C148.892,273.119 145.166,276.61 140.895,279.094C136.625,281.577 131.98,282.819 126.96,282.819Z" style="fill-rule:nonzero;"/>
            <path d="M188.075,282.819C181.401,282.819 176.496,280.474 173.358,275.783C170.221,271.092 169.188,264.564 170.259,256.201L180.085,256.201C179.504,260.871 180.101,264.522 181.876,267.154C183.651,269.786 186.406,271.102 190.141,271.102C195.008,271.102 198.812,269.171 201.551,265.307C204.291,261.444 205.661,256.053 205.661,249.133C205.661,244.378 204.651,240.674 202.63,238.021C200.61,235.368 197.794,234.041 194.182,234.041C189.865,234.041 185.687,235.442 181.646,238.244L182.932,227.418C185.748,225.423 188.48,224.075 191.128,223.375C193.776,222.674 196.355,222.324 198.865,222.324C204.1,222.324 208.179,224.617 211.102,229.201C214.025,233.786 215.487,240.154 215.487,248.305C215.487,259.173 213.069,267.642 208.232,273.713C203.396,279.784 196.676,282.819 188.075,282.819ZM176.504,238.244L182.473,191.121L192.299,191.121L187.386,230.348L181.646,238.244L176.504,238.244ZM185.366,202.966L186.054,191.121L218.563,191.121L217.048,202.966L185.366,202.966Z" style="fill-rule:nonzero;"/>
            <path d="M244.69,282.819C242.823,282.819 241.223,281.896 239.892,280.049C238.56,278.202 237.894,275.984 237.894,273.395C237.894,270.763 238.56,268.534 239.892,266.708C241.223,264.883 242.823,263.97 244.69,263.97C246.588,263.97 248.195,264.883 249.511,266.708C250.828,268.534 251.486,270.763 251.486,273.395C251.486,275.984 250.828,278.202 249.511,280.049C248.195,281.896 246.588,282.819 244.69,282.819Z" style="fill-rule:nonzero;"/>
            <path d="M298.045,282.819C294.066,282.819 290.408,282.479 287.071,281.8C283.734,281.121 281.01,280.187 278.898,278.998L281.561,266.772C285.112,268.003 288.456,268.969 291.594,269.669C294.732,270.37 297.402,270.72 299.606,270.72C303.616,270.72 306.731,269.988 308.95,268.523C311.17,267.059 312.279,264.989 312.279,262.314C312.279,260.998 311.904,259.778 311.154,258.653C310.404,257.528 309.325,256.647 307.917,256.01L294.142,249.579C291.112,248.178 288.785,246.204 287.163,243.657C285.541,241.109 284.729,238.244 284.729,235.06C284.729,227.97 286.895,222.483 291.227,218.599C295.558,214.715 301.688,212.772 309.616,212.772C312.402,212.772 315.256,212.942 318.18,213.282C321.103,213.621 323.85,214.088 326.422,214.683L323.942,226.4C321.065,225.933 318.256,225.561 315.516,225.285C312.777,225.009 310.351,224.871 308.239,224.871C303.892,224.871 300.532,225.646 298.16,227.196C295.788,228.745 294.601,230.942 294.601,233.786C294.601,234.805 294.892,235.729 295.474,236.556C296.055,237.384 296.913,238.032 298.045,238.499L312.05,244.675C315.295,246.119 317.782,248.252 319.511,251.075C321.241,253.898 322.106,257.135 322.106,260.786C322.106,267.791 320.009,273.214 315.815,277.056C311.621,280.898 305.698,282.819 298.045,282.819Z" style="fill-rule:nonzero;"/>
            <path d="M357.553,270.72C360.002,270.72 362.619,270.189 365.405,269.128C368.191,268.067 370.869,266.581 373.44,264.671L376.609,275.56C373.609,277.852 370.395,279.635 366.966,280.909C363.538,282.182 360.262,282.819 357.14,282.819C350.834,282.819 345.913,280.527 342.378,275.942C338.842,271.357 337.074,264.968 337.074,256.774C337.074,247.944 338.276,240.239 340.679,233.659C343.082,227.079 346.441,221.953 350.758,218.281C355.074,214.608 360.109,212.772 365.864,212.772C370.395,212.772 373.922,214.343 376.448,217.485C378.973,220.626 380.236,224.999 380.236,230.602C380.236,238.923 377.167,245.482 371.03,250.279C364.892,255.076 356.329,257.623 345.339,257.921L344.375,247.732C352.579,247.562 358.969,246.055 363.545,243.211C368.122,240.366 370.41,236.44 370.41,231.43C370.41,229.392 369.905,227.79 368.895,226.622C367.884,225.455 366.446,224.871 364.578,224.871C360.936,224.871 357.729,226.166 354.959,228.756C352.189,231.345 350.03,234.975 348.485,239.645C346.939,244.315 346.151,249.77 346.12,256.01C346.151,260.638 347.176,264.246 349.196,266.836C351.217,269.425 354.002,270.72 357.553,270.72Z" style="fill-rule:nonzero;"/>
            <path d="M415.5,282.819C409.868,282.819 405.727,281.153 403.08,277.82C400.432,274.488 399.108,269.298 399.108,262.251C399.108,260.468 399.169,258.759 399.291,257.125C399.414,255.49 399.605,253.654 399.865,251.616C400.126,249.579 400.439,247.074 400.807,244.102L407.189,193.669L417.061,193.669L410.679,244.102C410.158,248.348 409.737,251.616 409.416,253.909C409.095,256.201 408.934,258.557 408.934,260.977C408.934,264.331 409.607,266.793 410.954,268.364C412.301,269.935 414.413,270.72 417.291,270.72C419.525,270.72 421.485,270.465 423.168,269.956C424.852,269.446 426.857,268.534 429.183,267.218L430.974,278.107C428.77,279.423 426.436,280.537 423.972,281.45C421.507,282.363 418.684,282.819 415.5,282.819ZM391.715,225.89L393.23,214.046L436.117,214.046L434.601,225.89L391.715,225.89Z" style="fill-rule:nonzero;"/>
            <path d="M458.799,282.883C454.514,282.883 451.193,281.11 448.836,277.566C446.478,274.021 445.3,269.043 445.3,262.633C445.3,256.138 446.058,248.953 447.573,241.078C449.088,233.203 451.529,223.768 454.897,212.772L464.631,215.256C461.294,226.506 458.876,235.75 457.376,242.988C455.876,250.226 455.126,256.244 455.126,261.041C455.126,264.14 455.708,266.538 456.871,268.237C458.034,269.935 459.672,270.784 461.784,270.784C465.855,270.784 469.223,268.056 471.886,262.601C474.549,257.146 476.585,249.303 477.993,239.072L477.166,265.562L474.136,265.562L476.753,262.506C475.681,266.666 474.457,270.274 473.08,273.331C471.702,276.387 469.904,278.744 467.684,280.399C465.465,282.055 462.503,282.883 458.799,282.883ZM489.38,282.182C486.074,282.182 483.441,281.577 481.482,280.367C479.523,279.158 478.192,277.258 477.488,274.668C476.783,272.079 476.63,268.725 477.028,264.607L476.477,250.916L481.207,214.046L491.171,214.046L485.293,259.958C484.773,264.034 484.918,266.899 485.73,268.555C486.541,270.211 488.293,271.038 490.987,271.038L492.961,271.038L491.538,282.182L489.38,282.182Z" style="fill-rule:nonzero;"/>
            <path d="M505.497,310.838L495.625,310.838L507.884,214.046L516.103,214.046L515.782,230.029L505.497,310.838ZM512.66,282.819C510.425,282.819 508.206,282.702 506.002,282.469C503.798,282.235 501.578,281.906 499.344,281.482L503.936,269.128C505.925,270.189 509.17,270.72 513.67,270.72C518.292,270.72 522.44,269.192 526.113,266.135C529.787,263.079 532.687,258.908 534.815,253.622C536.942,248.337 538.006,242.362 538.006,235.697C538.006,232.258 537.439,229.594 536.307,227.705C535.174,225.816 533.567,224.871 531.486,224.871C528.945,224.871 526.389,225.975 523.817,228.183C521.246,230.39 518.935,233.85 516.884,238.562C514.833,243.274 513.318,249.366 512.338,256.838L514.129,229.392L518.124,229.392L515.507,234.232C516.609,227.397 518.874,222.112 522.302,218.376C525.731,214.64 530.016,212.772 535.159,212.772C539.169,212.772 542.284,214.545 544.503,218.089C546.722,221.634 547.832,226.654 547.832,233.15C547.832,240.239 546.952,246.798 545.192,252.826C543.432,258.855 540.96,264.119 537.776,268.619C534.593,273.119 530.866,276.61 526.595,279.094C522.325,281.577 517.68,282.819 512.66,282.819Z" style="fill-rule:nonzero;"/>
            <path d="M613.401,226.4L614.916,214.555L660.833,214.555L659.318,226.4L613.401,226.4ZM609.36,258.239L610.875,246.395L656.792,246.395L655.277,258.239L609.36,258.239Z" style="fill-rule:nonzero;"/>
            <path d="M770.895,178.386L769.472,189.848L767.819,189.848C763.074,189.848 758.811,191.705 755.031,195.42C751.25,199.134 748.082,204.483 745.526,211.467C742.97,218.45 741.141,226.867 740.039,236.716C738.447,251.192 739.06,262.495 741.876,270.625C744.692,278.754 749.391,282.819 755.972,282.819L757.625,282.819L756.156,294.281L753.63,294.281C747.233,294.281 742.044,291.84 738.065,286.958C734.085,282.076 731.43,275.061 730.098,265.912C728.767,256.764 728.866,245.758 730.397,232.895C731.437,224.319 733.067,216.667 735.287,209.939C737.506,203.21 740.246,197.5 743.506,192.809C746.766,188.118 750.485,184.541 754.664,182.079C758.842,179.617 763.395,178.386 768.324,178.386L770.895,178.386Z" style="fill-rule:nonzero;"/>
            <path d="M774.798,294.281L776.221,282.819L777.507,282.819C782.374,282.819 786.736,280.962 790.593,277.247C794.45,273.533 797.68,268.184 800.282,261.2C802.884,254.217 804.72,245.8 805.792,235.951C807.414,221.475 806.771,210.172 803.863,202.042C800.955,193.913 796.119,189.848 789.354,189.848L788.114,189.848L789.537,178.386L791.695,178.386C798.032,178.386 803.198,180.774 807.192,185.55C811.187,190.326 813.904,197.192 815.342,206.15C816.781,215.107 816.812,225.89 815.434,238.499C814.485,247.286 812.909,255.129 810.705,262.028C808.501,268.926 805.746,274.774 802.44,279.571C799.134,284.369 795.346,288.019 791.076,290.524C786.805,293.029 782.114,294.281 777.002,294.281L774.798,294.281Z" style="fill-rule:nonzero;"/>
            <path d="M888.901,226.4L890.416,214.555L936.333,214.555L934.818,226.4L888.901,226.4ZM884.86,258.239L886.376,246.395L932.292,246.395L930.777,258.239L884.86,258.239Z" style="fill-rule:nonzero;"/>
            <path d="M940.833,267.918L942.715,253.208L977.153,236.588L977.245,235.442L947.169,218.185L948.868,204.876L989.642,229.966L987.989,242.829L940.833,267.918Z" style="fill-rule:nonzero;"/>
            <path d="M1078.35,295.173C1075.54,295.173 1073.02,294.345 1070.8,292.689C1068.58,291.034 1066.94,288.667 1065.89,285.589C1064.83,282.511 1064.61,278.85 1065.22,274.604C1065.65,271.718 1066.24,269.234 1066.99,267.154C1067.74,265.074 1068.52,263.174 1069.33,261.455C1070.14,259.735 1070.82,258.006 1071.37,256.265C1071.92,254.524 1072.2,252.55 1072.2,250.343C1072.2,248.093 1071.43,246.342 1069.9,245.089C1068.37,243.837 1066.58,242.945 1064.51,242.415C1062.44,241.884 1060.58,241.619 1058.93,241.619L1060.22,231.558C1065.6,231.558 1069.61,230.135 1072.25,227.291C1074.88,224.447 1076.19,219.883 1076.19,213.6C1076.19,211.308 1076.07,209.026 1075.83,206.755C1075.58,204.483 1075.38,202.287 1075.23,200.164C1074.92,195.621 1075.51,191.695 1076.98,188.383C1078.44,185.072 1080.6,182.514 1083.43,180.71C1086.26,178.906 1089.54,178.004 1093.28,178.004C1095.05,178.004 1096.53,178.12 1097.71,178.354C1098.89,178.587 1099.95,178.895 1100.9,179.277L1098.42,190.357C1097.41,190.145 1096.43,189.986 1095.48,189.88C1094.53,189.774 1093.66,189.721 1092.86,189.721C1091.18,189.721 1089.72,190.188 1088.5,191.121C1087.28,192.055 1086.37,193.414 1085.77,195.197C1085.17,196.98 1084.93,199.166 1085.06,201.756C1085.18,203.878 1085.39,206.15 1085.68,208.57C1085.97,210.989 1086.11,213.6 1086.11,216.402C1086.11,228.883 1080.77,235.251 1070.09,235.506L1069.81,237.671C1073.73,237.756 1076.75,238.828 1078.86,240.887C1080.97,242.945 1082.03,245.737 1082.03,249.26C1082.03,251.807 1081.76,254.047 1081.22,255.978C1080.69,257.91 1080.02,259.778 1079.23,261.582C1078.43,263.386 1077.65,265.329 1076.88,267.409C1076.12,269.489 1075.51,271.951 1075.05,274.796C1074.62,277.47 1075,279.582 1076.19,281.132C1077.39,282.681 1078.95,283.456 1080.88,283.456C1081.67,283.456 1082.57,283.392 1083.57,283.265C1084.56,283.137 1085.58,282.989 1086.62,282.819L1086.34,293.899C1085.3,294.281 1084.15,294.589 1082.9,294.823C1081.64,295.056 1080.13,295.173 1078.35,295.173Z" style="fill-rule:nonzero;"/>
            <path d="M229.997,495.591L220.125,495.591L232.384,398.799L240.603,398.799L240.282,414.783L229.997,495.591ZM237.16,467.573C234.925,467.573 232.706,467.456 230.502,467.222C228.298,466.989 226.078,466.66 223.844,466.235L228.435,453.882C230.425,454.943 233.67,455.474 238.17,455.474C242.792,455.474 246.94,453.945 250.613,450.889C254.287,447.832 257.187,443.661 259.314,438.376C261.442,433.091 262.506,427.115 262.506,420.45C262.506,417.012 261.939,414.348 260.807,412.459C259.674,410.569 258.067,409.625 255.985,409.625C253.445,409.625 250.889,410.729 248.317,412.936C245.746,415.144 243.435,418.604 241.384,423.316C239.333,428.028 237.818,434.12 236.838,441.592L238.629,414.146L242.624,414.146L240.006,418.986C241.108,412.151 243.374,406.865 246.802,403.13C250.231,399.394 254.516,397.526 259.659,397.526C263.669,397.526 266.784,399.298 269.003,402.843C271.222,406.388 272.332,411.408 272.332,417.903C272.332,424.993 271.452,431.552 269.692,437.58C267.931,443.608 265.46,448.872 262.276,453.372C259.093,457.872 255.366,461.364 251.095,463.847C246.825,466.331 242.18,467.573 237.16,467.573Z" style="fill-rule:nonzero;"/>
            <path d="M298.275,467.573C291.602,467.573 286.696,465.227 283.558,460.536C280.421,455.845 279.388,449.318 280.459,440.955L290.285,440.955C289.704,445.625 290.301,449.276 292.076,451.908C293.851,454.54 296.606,455.856 300.341,455.856C305.208,455.856 309.012,453.924 311.751,450.061C314.491,446.198 315.861,440.806 315.861,433.887C315.861,429.132 314.851,425.428 312.83,422.775C310.81,420.121 307.994,418.795 304.382,418.795C300.065,418.795 295.887,420.196 291.846,422.997L293.132,412.172C295.948,410.177 298.68,408.829 301.328,408.128C303.976,407.428 306.555,407.078 309.065,407.078C314.3,407.078 318.379,409.37 321.302,413.955C324.225,418.54 325.687,424.908 325.687,433.059C325.687,443.927 323.269,452.396 318.432,458.467C313.596,464.537 306.876,467.573 298.275,467.573ZM286.704,422.997L292.673,375.875L302.499,375.875L297.586,415.101L291.846,422.997L286.704,422.997ZM295.566,387.719L296.254,375.875L328.763,375.875L327.248,387.719L295.566,387.719Z" style="fill-rule:nonzero;"/>
            <path d="M354.89,467.573C353.023,467.573 351.423,466.649 350.092,464.803C348.76,462.956 348.094,460.738 348.094,458.148C348.094,455.516 348.76,453.287 350.092,451.462C351.423,449.636 353.023,448.724 354.89,448.724C356.788,448.724 358.395,449.636 359.711,451.462C361.028,453.287 361.686,455.516 361.686,458.148C361.686,460.738 361.028,462.956 359.711,464.803C358.395,466.649 356.788,467.573 354.89,467.573Z" style="fill-rule:nonzero;"/>
            <path d="M411.23,455.474C414.413,455.474 417.528,454.752 420.574,453.309C423.62,451.865 426.321,449.976 428.678,447.641L431.984,458.085C428.984,460.929 425.556,463.221 421.699,464.962C417.842,466.702 413.908,467.573 409.898,467.573C403.868,467.573 399.2,465.408 395.894,461.077C392.588,456.747 390.935,450.655 390.935,442.802C390.935,433.674 392.083,425.725 394.378,418.954C396.674,412.183 399.896,406.919 404.044,403.161C408.192,399.404 413.051,397.526 418.622,397.526C423.643,397.526 427.637,398.63 430.607,400.837C433.576,403.045 435.826,406.611 437.356,411.535L430.239,419.368C428.648,415.972 426.826,413.499 424.775,411.949C422.724,410.4 420.245,409.625 417.337,409.625C414.031,409.625 411.13,410.941 408.635,413.573C406.141,416.205 404.212,419.898 402.85,424.653C401.488,429.408 400.791,434.99 400.761,441.401C400.791,445.858 401.717,449.318 403.539,451.78C405.36,454.243 407.924,455.474 411.23,455.474Z" style="fill-rule:nonzero;"/>
            <path d="M450.994,466.299L457.101,418.731C457.529,415.462 457.407,413.095 456.733,411.631C456.06,410.166 454.789,409.434 452.922,409.434C450.351,409.434 447.871,409.922 445.484,410.898L444.519,399.309C445.897,398.715 447.412,398.269 449.065,397.972C450.718,397.675 452.494,397.526 454.391,397.526C459.718,397.526 463.376,399.309 465.366,402.875C467.355,406.441 467.845,412.151 466.835,420.005L460.866,466.299L450.994,466.299ZM440.111,466.299L441.627,454.455L474.136,454.455L472.62,466.299L440.111,466.299ZM464.034,441.464L466.33,414.146L468.35,414.146C469.238,408.84 470.967,404.743 473.539,401.856C476.11,398.969 479.202,397.526 482.814,397.526C487.712,397.526 491.255,399.659 493.444,403.926C495.632,408.192 496.283,414.189 495.395,421.915L485.523,421.915C485.921,417.755 485.676,414.666 484.788,412.65C483.901,410.633 482.324,409.625 480.059,409.625C477.732,409.625 475.567,410.623 473.562,412.618C471.557,414.613 469.751,417.935 468.143,422.584C466.536,427.232 465.167,433.526 464.034,441.464Z" style="fill-rule:nonzero;"/>
            <path d="M522.853,455.474C525.302,455.474 527.919,454.943 530.705,453.882C533.491,452.82 536.169,451.335 538.74,449.424L541.909,460.313C538.909,462.606 535.695,464.389 532.266,465.662C528.838,466.936 525.562,467.573 522.44,467.573C516.134,467.573 511.213,465.28 507.678,460.695C504.142,456.11 502.374,449.721 502.374,441.528C502.374,432.698 503.576,424.993 505.979,418.413C508.382,411.832 511.741,406.706 516.058,403.034C520.374,399.362 525.409,397.526 531.164,397.526C535.695,397.526 539.223,399.097 541.748,402.238C544.273,405.38 545.536,409.752 545.536,415.356C545.536,423.677 542.467,430.236 536.33,435.033C530.192,439.83 521.629,442.377 510.639,442.674L509.675,432.486C517.879,432.316 524.269,430.809 528.845,427.964C533.422,425.12 535.71,421.193 535.71,416.184C535.71,414.146 535.205,412.544 534.195,411.376C533.184,410.209 531.746,409.625 529.878,409.625C526.236,409.625 523.029,410.92 520.259,413.509C517.489,416.099 515.331,419.729 513.785,424.398C512.239,429.068 511.451,434.523 511.42,440.764C511.451,445.391 512.476,449 514.496,451.589C516.517,454.179 519.302,455.474 522.853,455.474Z" style="fill-rule:nonzero;"/>
            <path d="M566.933,467.636C562.77,467.636 559.556,465.981 557.291,462.669C555.026,459.358 553.893,454.688 553.893,448.66C553.893,441.019 555.064,434.088 557.406,427.869C559.747,421.65 563.03,416.332 567.255,411.917C571.479,407.502 576.423,404.106 582.086,401.729C587.749,399.351 593.902,398.163 600.544,398.163L601.463,398.163L595.402,446.113C594.973,449.509 595.164,451.971 595.976,453.5C596.787,455.028 598.539,455.792 601.233,455.792L603.116,455.792L601.738,466.936L598.478,466.936C596.121,466.936 594.154,466.607 592.578,465.949C591.001,465.291 589.777,464.251 588.904,462.829C588.032,461.406 587.473,459.528 587.228,457.193C586.984,454.858 587.014,452.014 587.32,448.66L589.983,450.316L584.657,450.316L587.091,446.622C585.407,453.287 582.805,458.456 579.285,462.128C575.765,465.8 571.647,467.636 566.933,467.636ZM569.918,455.537C574.326,455.537 578.168,452.778 581.443,447.259C584.718,441.74 587.014,433.929 588.33,423.825L590.718,405.358L594.437,410.262C590.152,410.516 586.149,411.62 582.43,413.573C578.711,415.526 575.451,418.147 572.65,421.437C569.849,424.727 567.66,428.548 566.084,432.9C564.507,437.251 563.719,441.974 563.719,447.068C563.719,449.785 564.262,451.876 565.349,453.34C566.436,454.805 567.959,455.537 569.918,455.537Z" style="fill-rule:nonzero;"/>
            <path d="M635.9,467.573C630.268,467.573 626.127,465.906 623.48,462.574C620.832,459.241 619.508,454.052 619.508,447.004C619.508,445.221 619.569,443.513 619.691,441.878C619.814,440.244 620.005,438.408 620.265,436.37C620.526,434.332 620.839,431.828 621.207,428.856L627.589,378.422L637.461,378.422L631.079,428.856C630.558,433.101 630.138,436.37 629.816,438.662C629.495,440.955 629.334,443.311 629.334,445.731C629.334,449.085 630.007,451.547 631.354,453.118C632.701,454.688 634.813,455.474 637.691,455.474C639.925,455.474 641.885,455.219 643.568,454.71C645.252,454.2 647.257,453.287 649.583,451.971L651.374,462.86C649.17,464.176 646.836,465.291 644.372,466.204C641.908,467.116 639.084,467.573 635.9,467.573ZM612.115,410.644L613.63,398.799L656.517,398.799L655.001,410.644L612.115,410.644Z" style="fill-rule:nonzero;"/>
            <path d="M688.153,455.474C690.602,455.474 693.219,454.943 696.005,453.882C698.791,452.82 701.469,451.335 704.04,449.424L707.209,460.313C704.209,462.606 700.995,464.389 697.566,465.662C694.138,466.936 690.862,467.573 687.74,467.573C681.434,467.573 676.513,465.28 672.978,460.695C669.442,456.11 667.674,449.721 667.674,441.528C667.674,432.698 668.876,424.993 671.279,418.413C673.682,411.832 677.041,406.706 681.358,403.034C685.674,399.362 690.709,397.526 696.464,397.526C700.995,397.526 704.523,399.097 707.048,402.238C709.573,405.38 710.836,409.752 710.836,415.356C710.836,423.677 707.767,430.236 701.63,435.033C695.492,439.83 686.929,442.377 675.939,442.674L674.975,432.486C683.179,432.316 689.569,430.809 694.145,427.964C698.722,425.12 701.01,421.193 701.01,416.184C701.01,414.146 700.505,412.544 699.495,411.376C698.485,410.209 697.046,409.625 695.179,409.625C691.536,409.625 688.329,410.92 685.559,413.509C682.789,416.099 680.631,419.729 679.085,424.398C677.539,429.068 676.751,434.523 676.72,440.764C676.751,445.391 677.776,449 679.796,451.589C681.817,454.179 684.602,455.474 688.153,455.474Z" style="fill-rule:nonzero;"/>
            <path d="M746.881,467.573C741.156,467.573 736.389,466.288 732.578,463.72C728.767,461.152 725.904,457.31 723.991,452.194C722.078,447.079 721.121,440.679 721.121,432.995C721.121,424.377 722.017,416.502 723.808,409.37C725.598,402.238 728.131,396.083 731.407,390.903C734.682,385.724 738.577,381.712 743.093,378.868C747.608,376.024 752.59,374.602 758.038,374.602C764.804,374.602 770.069,377.977 773.834,384.726L767.268,394.087C764.298,388.908 760.778,386.318 756.707,386.318C751.778,386.318 747.37,388.324 743.483,392.336C739.595,396.348 736.534,401.835 734.3,408.797C732.065,415.759 730.948,423.677 730.948,432.549C730.948,437.729 731.59,442.048 732.876,445.508C734.162,448.968 736.075,451.557 738.616,453.277C741.156,454.996 744.325,455.856 748.12,455.856C753.324,455.856 758.635,454.582 764.054,452.035L764.696,463.243C758.819,466.129 752.88,467.573 746.881,467.573Z" style="fill-rule:nonzero;"/>
            <path d="M787.333,467.636C783.17,467.636 779.956,465.981 777.691,462.669C775.426,459.358 774.293,454.688 774.293,448.66C774.293,441.019 775.464,434.088 777.806,427.869C780.147,421.65 783.43,416.332 787.655,411.917C791.879,407.502 796.823,404.106 802.486,401.729C808.149,399.351 814.302,398.163 820.944,398.163L821.863,398.163L815.802,446.113C815.373,449.509 815.564,451.971 816.376,453.5C817.187,455.028 818.939,455.792 821.633,455.792L823.516,455.792L822.138,466.936L818.878,466.936C816.521,466.936 814.554,466.607 812.978,465.949C811.401,465.291 810.177,464.251 809.304,462.829C808.432,461.406 807.873,459.528 807.628,457.193C807.384,454.858 807.414,452.014 807.72,448.66L810.383,450.316L805.057,450.316L807.491,446.622C805.807,453.287 803.205,458.456 799.685,462.128C796.165,465.8 792.047,467.636 787.333,467.636ZM790.318,455.537C794.726,455.537 798.568,452.778 801.843,447.259C805.118,441.74 807.414,433.929 808.73,423.825L811.118,405.358L814.837,410.262C810.552,410.516 806.549,411.62 802.83,413.573C799.111,415.526 795.851,418.147 793.05,421.437C790.249,424.727 788.06,428.548 786.484,432.9C784.907,437.251 784.119,441.974 784.119,447.068C784.119,449.785 784.662,451.876 785.749,453.34C786.836,454.805 788.359,455.537 790.318,455.537Z" style="fill-rule:nonzero;"/>
            <path d="M829.944,466.299L838.53,398.799L846.658,398.799L846.336,414.91L839.816,466.299L829.944,466.299ZM859.698,466.299L865.346,421.405C865.836,417.5 865.629,414.56 864.726,412.586C863.823,410.612 862.208,409.625 859.882,409.625C857.402,409.625 855.106,410.623 852.994,412.618C850.882,414.613 848.976,417.935 847.278,422.584C845.579,427.232 844.132,433.526 842.938,441.464L845.234,414.146L847.255,414.146C848.234,408.84 850.178,404.743 853.086,401.856C855.994,398.969 859.484,397.526 863.555,397.526C868.483,397.526 871.919,399.574 873.863,403.671C875.807,407.768 876.259,413.849 875.218,421.915L869.57,466.299L859.698,466.299Z" style="fill-rule:nonzero;"/>
            <path d="M895.054,466.299L888.625,398.799L898.819,397.526L903.502,454.455L904.329,454.455C910.39,447.493 914.997,439.395 918.15,430.161C921.303,420.928 923.032,410.474 923.338,398.799L933.165,398.799C932.767,413.318 930.394,426.192 926.048,437.421C921.701,448.649 915.334,458.276 906.946,466.299L895.054,466.299Z" style="fill-rule:nonzero;"/>
            <path d="M952.633,467.636C948.47,467.636 945.256,465.981 942.991,462.669C940.726,459.358 939.593,454.688 939.593,448.66C939.593,441.019 940.764,434.088 943.106,427.869C945.447,421.65 948.73,416.332 952.955,411.917C957.179,407.502 962.123,404.106 967.786,401.729C973.449,399.351 979.602,398.163 986.244,398.163L987.163,398.163L981.102,446.113C980.673,449.509 980.864,451.971 981.676,453.5C982.487,455.028 984.239,455.792 986.933,455.792L988.816,455.792L987.438,466.936L984.178,466.936C981.821,466.936 979.854,466.607 978.278,465.949C976.701,465.291 975.477,464.251 974.604,462.829C973.732,461.406 973.173,459.528 972.929,457.193C972.684,454.858 972.714,452.014 973.02,448.66L975.684,450.316L970.357,450.316L972.791,446.622C971.107,453.287 968.505,458.456 964.985,462.128C961.465,465.8 957.347,467.636 952.633,467.636ZM955.618,455.537C960.026,455.537 963.868,452.778 967.143,447.259C970.418,441.74 972.714,433.929 974.031,423.825L976.418,405.358L980.137,410.262C975.852,410.516 971.849,411.62 968.13,413.573C964.411,415.526 961.151,418.147 958.35,421.437C955.549,424.727 953.36,428.548 951.784,432.9C950.207,437.251 949.419,441.974 949.419,447.068C949.419,449.785 949.963,451.876 951.049,453.34C952.136,454.805 953.659,455.537 955.618,455.537Z" style="fill-rule:nonzero;"/>
            <path d="M1014.35,467.573C1010.37,467.573 1006.71,467.233 1003.37,466.554C1000.03,465.875 997.31,464.941 995.198,463.752L997.861,451.526C1001.41,452.757 1004.76,453.723 1007.89,454.423C1011.03,455.123 1013.7,455.474 1015.91,455.474C1019.92,455.474 1023.03,454.741 1025.25,453.277C1027.47,451.812 1028.58,449.743 1028.58,447.068C1028.58,445.752 1028.2,444.532 1027.45,443.407C1026.7,442.282 1025.63,441.401 1024.22,440.764L1010.44,434.332C1007.41,432.931 1005.09,430.957 1003.46,428.41C1001.84,425.863 1001.03,422.997 1001.03,419.814C1001.03,412.724 1003.2,407.237 1007.53,403.353C1011.86,399.468 1017.99,397.526 1025.92,397.526C1028.7,397.526 1031.56,397.696 1034.48,398.035C1037.4,398.375 1040.15,398.842 1042.72,399.436L1040.24,411.153C1037.37,410.686 1034.56,410.315 1031.82,410.039C1029.08,409.763 1026.65,409.625 1024.54,409.625C1020.19,409.625 1016.83,410.4 1014.46,411.949C1012.09,413.499 1010.9,415.696 1010.9,418.54C1010.9,419.559 1011.19,420.482 1011.77,421.31C1012.36,422.138 1013.21,422.785 1014.35,423.252L1028.35,429.429C1031.6,430.872 1034.08,433.006 1035.81,435.829C1037.54,438.652 1038.41,441.889 1038.41,445.54C1038.41,452.544 1036.31,457.968 1032.12,461.81C1027.92,465.652 1022,467.573 1014.35,467.573Z" style="fill-rule:nonzero;"/>
            <path d="M1101.5,363.139L1100.07,374.602L1098.42,374.602C1093.67,374.602 1089.41,376.459 1085.63,380.173C1081.85,383.888 1078.68,389.237 1076.13,396.221C1073.57,403.204 1071.74,411.62 1070.64,421.469C1069.05,435.945 1069.66,447.248 1072.48,455.378C1075.29,463.508 1079.99,467.573 1086.57,467.573L1088.22,467.573L1086.76,479.035L1084.23,479.035C1077.83,479.035 1072.64,476.594 1068.66,471.712C1064.68,466.83 1062.03,459.814 1060.7,450.666C1059.37,441.517 1059.47,430.512 1061,417.648C1062.04,409.073 1063.67,401.421 1065.89,394.692C1068.11,387.963 1070.85,382.254 1074.11,377.563C1077.37,372.872 1081.09,369.295 1085.26,366.833C1089.44,364.37 1094,363.139 1098.92,363.139L1101.5,363.139Z" style="fill-rule:nonzero;"/>
            <path d="M1126.66,467.573C1120.35,467.573 1115.57,465.45 1112.31,461.205C1109.05,456.96 1107.42,450.677 1107.42,442.356C1107.42,428.346 1109.16,416.47 1112.65,406.728C1116.14,396.985 1121.3,389.471 1128.13,384.185C1134.95,378.9 1143.36,376.002 1153.34,375.493L1152.69,387.656C1142.71,388.25 1135,391.445 1129.55,397.239C1124.1,403.034 1120.41,411.578 1118.48,422.87L1119.4,422.87C1120.96,418.455 1123.33,415.038 1126.5,412.618C1129.66,410.198 1133.24,408.988 1137.22,408.988C1142.15,408.988 1145.88,410.962 1148.42,414.91C1150.96,418.858 1152.23,424.505 1152.23,431.849C1152.23,438.896 1151.15,445.105 1149,450.475C1146.84,455.845 1143.85,460.037 1140.02,463.051C1136.19,466.066 1131.74,467.573 1126.66,467.573ZM1127.53,455.856C1130.35,455.856 1132.88,454.848 1135.13,452.831C1137.38,450.815 1139.15,448.087 1140.46,444.648C1141.76,441.21 1142.41,437.325 1142.41,432.995C1142.41,429.047 1141.61,426.012 1140.02,423.889C1138.43,421.766 1136.09,420.705 1132.99,420.705C1129.9,420.705 1127.19,421.639 1124.87,423.507C1122.54,425.375 1120.73,427.986 1119.43,431.339C1118.12,434.693 1117.47,438.599 1117.47,443.056C1117.47,451.589 1120.83,455.856 1127.53,455.856Z" style="fill-rule:nonzero;"/>
            <path d="M1158.8,446.049L1175.28,380.969L1185.25,380.969L1168.67,446.049L1158.8,446.049ZM1158.8,446.049L1166.65,434.205L1193.7,434.205L1192.27,446.049L1158.8,446.049ZM1199.71,446.049L1201.13,434.205L1208.3,434.205L1206.78,446.049L1199.71,446.049ZM1188.37,466.299L1199.85,375.875L1209.67,375.875L1198.2,466.299L1188.37,466.299Z" style="fill-rule:nonzero;"/>
            <path d="M1235.43,467.573C1229.89,467.573 1225.57,464.845 1222.46,459.39C1219.36,453.935 1217.8,446.346 1217.8,436.625C1217.8,423.634 1218.97,412.512 1221.32,403.257C1223.66,394.002 1227.02,386.913 1231.39,381.988C1235.77,377.064 1241.04,374.602 1247.19,374.602C1252.67,374.602 1256.95,377.265 1260.05,382.593C1263.14,387.921 1264.68,395.34 1264.68,404.849C1264.68,417.967 1263.52,429.206 1261.19,438.567C1258.87,447.928 1255.52,455.102 1251.16,460.09C1246.8,465.079 1241.56,467.573 1235.43,467.573ZM1241.22,431.276C1239.17,431.276 1237.51,430.395 1236.24,428.633C1234.97,426.871 1234.33,424.568 1234.33,421.724C1234.33,418.837 1234.97,416.523 1236.24,414.783C1237.51,413.042 1239.17,412.172 1241.22,412.172C1243.3,412.172 1244.97,413.042 1246.23,414.783C1247.48,416.523 1248.11,418.837 1248.11,421.724C1248.11,424.568 1247.48,426.871 1246.23,428.633C1244.97,430.395 1243.3,431.276 1241.22,431.276ZM1236.95,455.856C1240.71,455.856 1243.93,453.86 1246.59,449.87C1249.26,445.879 1251.3,440.127 1252.72,432.613C1254.14,425.099 1254.86,416.078 1254.86,405.549C1254.86,399.479 1254.05,394.756 1252.45,391.381C1250.84,388.006 1248.61,386.318 1245.77,386.318C1241.97,386.318 1238.72,388.303 1236.01,392.272C1233.3,396.242 1231.23,401.952 1229.79,409.402C1228.35,416.852 1227.63,425.821 1227.63,436.306C1227.63,442.462 1228.45,447.259 1230.09,450.698C1231.72,454.136 1234.01,455.856 1236.95,455.856Z" style="fill-rule:nonzero;"/>
            <path d="M1279.51,494.063L1287.64,450.125L1298.75,450.125L1288.1,494.063L1279.51,494.063Z" style="fill-rule:nonzero;"/>
            <path d="M1379.2,446.049L1395.68,380.969L1405.65,380.969L1389.07,446.049L1379.2,446.049ZM1379.2,446.049L1387.05,434.205L1414.1,434.205L1412.67,446.049L1379.2,446.049ZM1420.11,446.049L1421.53,434.205L1428.7,434.205L1427.18,446.049L1420.11,446.049ZM1408.77,466.299L1420.25,375.875L1430.08,375.875L1418.6,466.299L1408.77,466.299Z" style="fill-rule:nonzero;"/>
            <path d="M1455.56,467.573C1451.76,467.573 1448.43,466.66 1445.57,464.834C1442.71,463.009 1440.48,460.462 1438.89,457.193C1437.3,453.924 1436.5,450.125 1436.5,445.794C1436.5,440.148 1437.56,435.224 1439.67,431.021C1441.78,426.818 1444.75,423.539 1448.56,421.183C1452.37,418.826 1456.81,417.648 1461.89,417.648C1467.8,417.648 1472.56,419.569 1476.15,423.411C1479.75,427.253 1481.55,432.337 1481.55,438.662C1481.55,444.436 1480.47,449.488 1478.31,453.818C1476.15,458.148 1473.12,461.523 1469.22,463.943C1465.32,466.363 1460.76,467.573 1455.56,467.573ZM1457.03,455.856C1459.97,455.856 1462.54,455.102 1464.74,453.595C1466.95,452.088 1468.66,449.965 1469.88,447.227C1471.11,444.489 1471.72,441.316 1471.72,437.707C1471.72,433.717 1470.74,430.501 1468.78,428.06C1466.82,425.619 1464.24,424.398 1461.02,424.398C1458.08,424.398 1455.51,425.194 1453.31,426.786C1451.11,428.378 1449.39,430.607 1448.17,433.473C1446.94,436.338 1446.33,439.681 1446.33,443.502C1446.33,447.195 1447.31,450.178 1449.27,452.449C1451.23,454.72 1453.81,455.856 1457.03,455.856ZM1453.81,421.342L1454.64,414.847L1469.98,414.847L1469.15,421.342L1453.81,421.342ZM1462.58,412.681C1466.47,412.681 1469.59,411.227 1471.95,408.319C1474.31,405.411 1475.49,401.58 1475.49,396.825C1475.49,393.684 1474.61,391.147 1472.85,389.216C1471.09,387.284 1468.77,386.318 1465.89,386.318C1462.28,386.318 1459.36,387.698 1457.12,390.458C1454.88,393.217 1453.77,396.868 1453.77,401.41C1453.77,404.764 1454.58,407.481 1456.2,409.561C1457.82,411.641 1459.95,412.681 1462.58,412.681ZM1461.76,418.795C1456.4,418.795 1452.09,417.16 1448.83,413.891C1445.57,410.623 1443.94,406.314 1443.94,400.965C1443.94,395.7 1444.92,391.094 1446.88,387.146C1448.84,383.198 1451.57,380.12 1455.08,377.913C1458.58,375.705 1462.68,374.602 1467.36,374.602C1472.75,374.602 1477.09,376.385 1480.38,379.951C1483.67,383.517 1485.31,388.229 1485.31,394.087C1485.31,399.054 1484.33,403.384 1482.37,407.078C1480.41,410.771 1477.67,413.647 1474.13,415.706C1470.6,417.765 1466.47,418.795 1461.76,418.795Z" style="fill-rule:nonzero;"/>
            <path d="M1510.93,467.573C1505.39,467.573 1501.07,464.845 1497.96,459.39C1494.86,453.935 1493.3,446.346 1493.3,436.625C1493.3,423.634 1494.47,412.512 1496.82,403.257C1499.16,394.002 1502.52,386.913 1506.89,381.988C1511.27,377.064 1516.54,374.602 1522.69,374.602C1528.17,374.602 1532.45,377.265 1535.55,382.593C1538.64,387.921 1540.18,395.34 1540.18,404.849C1540.18,417.967 1539.02,429.206 1536.69,438.567C1534.37,447.928 1531.02,455.102 1526.66,460.09C1522.3,465.079 1517.06,467.573 1510.93,467.573ZM1516.72,431.276C1514.67,431.276 1513.01,430.395 1511.74,428.633C1510.47,426.871 1509.83,424.568 1509.83,421.724C1509.83,418.837 1510.47,416.523 1511.74,414.783C1513.01,413.042 1514.67,412.172 1516.72,412.172C1518.8,412.172 1520.47,413.042 1521.73,414.783C1522.98,416.523 1523.61,418.837 1523.61,421.724C1523.61,424.568 1522.98,426.871 1521.73,428.633C1520.47,430.395 1518.8,431.276 1516.72,431.276ZM1512.45,455.856C1516.21,455.856 1519.43,453.86 1522.09,449.87C1524.76,445.879 1526.8,440.127 1528.22,432.613C1529.64,425.099 1530.36,416.078 1530.36,405.549C1530.36,399.479 1529.55,394.756 1527.95,391.381C1526.34,388.006 1524.11,386.318 1521.27,386.318C1517.47,386.318 1514.22,388.303 1511.51,392.272C1508.8,396.242 1506.73,401.952 1505.29,409.402C1503.85,416.852 1503.13,425.821 1503.13,436.306C1503.13,442.462 1503.95,447.259 1505.59,450.698C1507.22,454.136 1509.51,455.856 1512.45,455.856Z" style="fill-rule:nonzero;"/>
            <path d="M1546.2,479.035L1547.62,467.573L1548.91,467.573C1553.77,467.573 1558.14,465.715 1561.99,462.001C1565.85,458.286 1569.08,452.937 1571.68,445.954C1574.28,438.97 1576.12,430.554 1577.19,420.705C1578.81,406.229 1578.17,394.926 1575.26,386.796C1572.36,378.666 1567.52,374.602 1560.75,374.602L1559.51,374.602L1560.94,363.139L1563.1,363.139C1569.43,363.139 1574.6,365.527 1578.59,370.303C1582.59,375.079 1585.3,381.946 1586.74,390.903C1588.18,399.861 1588.21,410.644 1586.84,423.252C1585.89,432.04 1584.31,439.883 1582.11,446.782C1579.9,453.68 1577.15,459.528 1573.84,464.325C1570.53,469.122 1566.75,472.773 1562.48,475.278C1558.2,477.783 1553.51,479.035 1548.4,479.035L1546.2,479.035Z" style="fill-rule:nonzero;"/>
            <path d="M121.771,664.68C119.996,664.68 118.526,664.563 117.363,664.33C116.2,664.096 115.128,663.788 114.149,663.406L116.628,652.326C117.639,652.496 118.618,652.645 119.567,652.772C120.516,652.899 121.388,652.963 122.184,652.963C123.868,652.963 125.322,652.496 126.546,651.562C127.771,650.628 128.689,649.259 129.301,647.455C129.914,645.651 130.143,643.475 129.99,640.928C129.868,638.805 129.661,636.534 129.37,634.114C129.079,631.694 128.934,629.083 128.934,626.282C128.934,613.801 134.276,607.433 144.959,607.178L145.234,605.013C141.316,604.928 138.301,603.856 136.189,601.797C134.077,599.738 133.021,596.947 133.021,593.423C133.021,590.876 133.288,588.637 133.824,586.705C134.36,584.774 135.026,582.906 135.822,581.101C136.617,579.297 137.398,577.355 138.163,575.275C138.929,573.195 139.541,570.732 140,567.888C140.429,565.214 140.046,563.102 138.852,561.552C137.658,560.003 136.097,559.228 134.169,559.228C133.373,559.228 132.485,559.281 131.505,559.387C130.526,559.493 129.5,559.652 128.429,559.865L128.704,548.784C129.776,548.402 130.931,548.095 132.171,547.861C133.411,547.628 134.919,547.511 136.694,547.511C139.541,547.511 142.066,548.339 144.27,549.994C146.474,551.65 148.104,554.017 149.16,557.095C150.216,560.172 150.438,563.834 149.826,568.079C149.428,570.966 148.847,573.449 148.081,575.53C147.316,577.61 146.528,579.509 145.717,581.229C144.905,582.948 144.224,584.678 143.673,586.419C143.122,588.159 142.847,590.133 142.847,592.341C142.847,594.548 143.612,596.289 145.143,597.562C146.673,598.836 148.479,599.738 150.561,600.269C152.642,600.799 154.494,601.065 156.117,601.065L154.831,611.126C149.443,611.126 145.433,612.538 142.801,615.361C140.168,618.184 138.852,622.758 138.852,629.083C138.852,631.376 138.982,633.658 139.242,635.929C139.503,638.2 139.694,640.397 139.816,642.52C140.122,647.02 139.541,650.936 138.071,654.268C136.602,657.601 134.452,660.169 131.62,661.974C128.789,663.778 125.506,664.68 121.771,664.68Z" style="fill-rule:nonzero;"/>
            <path d="M119.797,865.099L109.925,865.099L122.184,768.307L130.403,768.307L130.082,784.29L119.797,865.099ZM126.96,837.08C124.725,837.08 122.506,836.963 120.302,836.73C118.098,836.496 115.878,836.167 113.644,835.743L118.235,823.389C120.225,824.45 123.47,824.981 127.97,824.981C132.592,824.981 136.74,823.453 140.413,820.396C144.087,817.339 146.987,813.168 149.114,807.883C151.242,802.598 152.306,796.623 152.306,789.958C152.306,786.519 151.739,783.855 150.607,781.966C149.474,780.077 147.867,779.132 145.785,779.132C143.245,779.132 140.689,780.236 138.117,782.443C135.546,784.651 133.235,788.111 131.184,792.823C129.133,797.535 127.618,803.627 126.638,811.099L128.429,783.653L132.424,783.653L129.806,788.493C130.908,781.658 133.174,776.373 136.602,772.637C140.031,768.901 144.316,767.033 149.459,767.033C153.469,767.033 156.584,768.806 158.803,772.35C161.022,775.895 162.132,780.915 162.132,787.41C162.132,794.5 161.252,801.059 159.492,807.087C157.731,813.115 155.26,818.38 152.076,822.879C148.892,827.379 145.166,830.871 140.895,833.355C136.625,835.838 131.98,837.08 126.96,837.08Z" style="fill-rule:nonzero;"/>
            <path d="M188.075,837.08C181.401,837.08 176.496,834.734 173.358,830.043C170.221,825.352 169.188,818.825 170.259,810.462L180.085,810.462C179.504,815.132 180.101,818.783 181.876,821.415C183.651,824.047 186.406,825.363 190.141,825.363C195.008,825.363 198.812,823.431 201.551,819.568C204.291,815.705 205.661,810.314 205.661,803.394C205.661,798.639 204.651,794.935 202.63,792.282C200.61,789.629 197.794,788.302 194.182,788.302C189.865,788.302 185.687,789.703 181.646,792.505L182.932,781.679C185.748,779.684 188.48,778.336 191.128,777.636C193.776,776.935 196.355,776.585 198.865,776.585C204.1,776.585 208.179,778.877 211.102,783.462C214.025,788.047 215.487,794.415 215.487,802.566C215.487,813.434 213.069,821.903 208.232,827.974C203.396,834.045 196.676,837.08 188.075,837.08ZM176.504,792.505L182.473,745.382L192.299,745.382L187.386,784.609L181.646,792.505L176.504,792.505ZM185.366,757.227L186.054,745.382L218.563,745.382L217.048,757.227L185.366,757.227Z" style="fill-rule:nonzero;"/>
            <path d="M244.69,837.08C242.823,837.08 241.223,836.157 239.892,834.31C238.56,832.463 237.894,830.245 237.894,827.655C237.894,825.023 238.56,822.795 239.892,820.969C241.223,819.144 242.823,818.231 244.69,818.231C246.588,818.231 248.195,819.144 249.511,820.969C250.828,822.795 251.486,825.023 251.486,827.655C251.486,830.245 250.828,832.463 249.511,834.31C248.195,836.157 246.588,837.08 244.69,837.08Z" style="fill-rule:nonzero;"/>
            <path d="M291.663,837.144C287.438,837.144 284.171,835.488 281.86,832.177C279.548,828.865 278.393,824.196 278.393,818.167C278.393,810.398 279.564,803.373 281.905,797.09C284.247,790.807 287.53,785.426 291.755,780.947C295.979,776.468 300.923,773.03 306.586,770.631C312.249,768.232 318.402,767.033 325.044,767.033L325.871,767.033L318.937,779.132C313.213,779.472 308.024,781.318 303.371,784.672C298.719,788.026 295.03,792.452 292.306,797.949C289.581,803.447 288.219,809.656 288.219,816.575C288.219,819.292 288.778,821.383 289.895,822.848C291.012,824.312 292.596,825.045 294.647,825.045C298.933,825.045 302.675,822.285 305.874,816.766C309.073,811.247 311.392,803.436 312.83,793.333L312.279,819.759L306.953,819.759L311.545,816.13C310.014,822.455 307.512,827.539 304.037,831.381C300.563,835.223 296.438,837.144 291.663,837.144ZM322.748,836.443C320.514,836.443 318.623,836.061 317.078,835.297C315.532,834.533 314.315,833.376 313.427,831.826C312.54,830.277 311.973,828.303 311.728,825.904C311.483,823.506 311.529,820.672 311.866,817.403L312.417,796.389L317.192,759.583C317.621,756.314 317.499,753.937 316.825,752.451C316.152,750.965 314.881,750.222 313.014,750.222C312.249,750.222 311.491,750.275 310.741,750.381C309.991,750.487 309.234,750.668 308.468,750.922L307.412,739.97C308.575,739.588 309.739,739.322 310.902,739.174C312.065,739.025 313.228,738.951 314.392,738.951C319.718,738.951 323.368,740.734 325.343,744.3C327.317,747.866 327.799,753.597 326.789,761.493L319.902,815.556C319.626,817.722 319.618,819.526 319.879,820.969C320.139,822.413 320.682,823.495 321.509,824.217C322.335,824.938 323.452,825.299 324.861,825.299L327.661,825.299L326.238,836.443L322.748,836.443Z" style="fill-rule:nonzero;"/>
            <path d="M340.794,835.806L346.901,788.238C347.329,784.969 347.207,782.603 346.533,781.138C345.86,779.673 344.589,778.941 342.722,778.941C340.151,778.941 337.671,779.429 335.284,780.406L334.319,768.816C335.697,768.222 337.212,767.776 338.865,767.479C340.518,767.182 342.294,767.033 344.191,767.033C349.518,767.033 353.176,768.816 355.166,772.382C357.155,775.948 357.645,781.658 356.635,789.512L350.666,835.806L340.794,835.806ZM329.911,835.806L331.427,823.962L363.936,823.962L362.42,835.806L329.911,835.806ZM353.834,810.972L356.13,783.653L358.15,783.653C359.038,778.347 360.767,774.25 363.339,771.363C365.91,768.477 369.002,767.033 372.614,767.033C377.512,767.033 381.055,769.166 383.244,773.433C385.432,777.699 386.083,783.696 385.195,791.422L375.323,791.422C375.721,787.262 375.476,784.173 374.588,782.157C373.701,780.14 372.124,779.132 369.859,779.132C367.532,779.132 365.367,780.13 363.362,782.125C361.357,784.12 359.551,787.442 357.943,792.091C356.336,796.739 354.967,803.033 353.834,810.972Z" style="fill-rule:nonzero;"/>
            <path d="M401.633,837.144C397.47,837.144 394.256,835.488 391.991,832.177C389.725,828.865 388.593,824.196 388.593,818.167C388.593,810.526 389.764,803.595 392.105,797.376C394.447,791.157 397.73,785.84 401.955,781.425C406.179,777.009 411.123,773.613 416.786,771.236C422.449,768.859 428.602,767.67 435.244,767.67L436.163,767.67L430.102,815.62C429.673,819.016 429.864,821.479 430.675,823.007C431.487,824.535 433.239,825.299 435.933,825.299L437.816,825.299L436.438,836.443L433.178,836.443C430.821,836.443 428.854,836.114 427.278,835.456C425.701,834.798 424.477,833.758 423.604,832.336C422.732,830.914 422.173,829.035 421.928,826.7C421.683,824.365 421.714,821.521 422.02,818.167L424.683,819.823L419.357,819.823L421.791,816.13C420.107,822.795 417.505,827.963 413.985,831.635C410.464,835.307 406.347,837.144 401.633,837.144ZM404.618,825.045C409.026,825.045 412.867,822.285 416.143,816.766C419.418,811.247 421.714,803.436 423.03,793.333L425.418,774.866L429.137,779.769C424.852,780.024 420.849,781.127 417.13,783.08C413.411,785.033 410.151,787.654 407.35,790.945C404.549,794.235 402.36,798.055 400.784,802.407C399.207,806.758 398.419,811.481 398.419,816.575C398.419,819.292 398.962,821.383 400.049,822.848C401.136,824.312 402.659,825.045 404.618,825.045Z" style="fill-rule:nonzero;"/>
            <path d="M469.59,835.806L469.085,803.585L465.503,806.132L464.769,768.307L473.125,767.67L474.365,823.962L475.192,823.962C477.794,817 479.921,808.902 481.574,799.669C483.227,790.435 484.115,779.981 484.237,768.307L494.063,768.307C493.849,782.825 492.334,795.699 489.518,806.928C486.701,818.157 482.875,827.783 478.039,835.806L469.59,835.806ZM470.049,790.849L471.427,809.634L467.019,809.634L469.177,806.832L458.432,835.806L449.524,835.806L445.346,768.307L455.08,767.67L457.284,823.962L458.111,823.962L470.049,790.849Z" style="fill-rule:nonzero;"/>
            <path d="M558.301,780.66L559.816,768.816L605.733,768.816L604.218,780.66L558.301,780.66ZM554.26,812.5L555.775,800.656L601.692,800.656L600.177,812.5L554.26,812.5Z" style="fill-rule:nonzero;"/>
            <path d="M715.795,732.647L714.372,744.109L712.719,744.109C707.974,744.109 703.711,745.966 699.931,749.681C696.15,753.395 692.982,758.744 690.426,765.728C687.87,772.711 686.041,781.127 684.939,790.976C683.347,805.453 683.96,816.756 686.776,824.885C689.592,833.015 694.291,837.08 700.872,837.08L702.525,837.08L701.056,848.542L698.53,848.542C692.133,848.542 686.944,846.101 682.965,841.219C678.985,836.337 676.33,829.322 674.998,820.173C673.667,811.025 673.766,800.019 675.297,787.156C676.337,778.58 677.967,770.928 680.187,764.199C682.406,757.471 685.146,751.761 688.406,747.07C691.666,742.379 695.385,738.802 699.564,736.34C703.742,733.878 708.295,732.647 713.224,732.647L715.795,732.647Z" style="fill-rule:nonzero;"/>
            <path d="M719.698,848.542L721.121,837.08L722.407,837.08C727.274,837.08 731.636,835.223 735.493,831.508C739.35,827.793 742.58,822.444 745.182,815.461C747.784,808.477 749.62,800.061 750.692,790.212C752.314,775.736 751.671,764.433 748.763,756.303C745.855,748.174 741.019,744.109 734.254,744.109L733.014,744.109L734.437,732.647L736.595,732.647C742.932,732.647 748.097,735.035 752.092,739.81C756.087,744.586 758.804,751.453 760.242,760.411C761.681,769.368 761.712,780.151 760.334,792.759C759.385,801.547 757.809,809.39 755.605,816.289C753.401,823.187 750.646,829.035 747.34,833.832C744.034,838.629 740.246,842.28 735.975,844.785C731.705,847.29 727.014,848.542 721.902,848.542L719.698,848.542Z" style="fill-rule:nonzero;"/>
            <path d="M833.801,780.66L835.316,768.816L881.233,768.816L879.718,780.66L833.801,780.66ZM829.76,812.5L831.276,800.656L877.192,800.656L875.677,812.5L829.76,812.5Z" style="fill-rule:nonzero;"/>
            <path d="M885.733,822.179L887.615,807.469L922.053,790.849L922.145,789.703L892.069,772.446L893.768,759.137L934.542,784.226L932.889,797.09L885.733,822.179Z" style="fill-rule:nonzero;"/>
            <path d="M1023.25,849.434C1020.44,849.434 1017.92,848.606 1015.7,846.95C1013.48,845.294 1011.84,842.928 1010.79,839.85C1009.73,836.772 1009.51,833.111 1010.12,828.865C1010.55,825.979 1011.14,823.495 1011.89,821.415C1012.64,819.335 1013.42,817.435 1014.23,815.716C1015.04,813.996 1015.72,812.266 1016.27,810.526C1016.83,808.785 1017.1,806.811 1017.1,804.604C1017.1,802.354 1016.34,800.603 1014.81,799.35C1013.27,798.098 1011.48,797.206 1009.41,796.676C1007.34,796.145 1005.48,795.88 1003.83,795.88L1005.12,785.818C1010.5,785.818 1014.51,784.396 1017.15,781.552C1019.78,778.708 1021.1,774.144 1021.1,767.861C1021.1,765.569 1020.97,763.287 1020.73,761.015C1020.48,758.744 1020.28,756.547 1020.13,754.425C1019.83,749.882 1020.41,745.955 1021.88,742.644C1023.35,739.333 1025.5,736.775 1028.33,734.971C1031.16,733.167 1034.44,732.264 1038.18,732.264C1039.95,732.264 1041.43,732.381 1042.61,732.615C1043.79,732.848 1044.85,733.156 1045.8,733.538L1043.32,744.618C1042.31,744.406 1041.33,744.247 1040.38,744.141C1039.43,744.034 1038.56,743.981 1037.76,743.981C1036.08,743.981 1034.62,744.448 1033.4,745.382C1032.18,746.316 1031.27,747.675 1030.67,749.458C1030.07,751.241 1029.84,753.427 1029.96,756.017C1030.08,758.139 1030.29,760.411 1030.58,762.83C1030.87,765.25 1031.01,767.861 1031.01,770.663C1031.01,783.144 1025.67,789.512 1014.99,789.766L1014.71,791.932C1018.63,792.016 1021.65,793.088 1023.76,795.147C1025.87,797.206 1026.93,799.998 1026.93,803.521C1026.93,806.068 1026.66,808.308 1026.12,810.239C1025.59,812.171 1024.92,814.039 1024.13,815.843C1023.33,817.647 1022.55,819.589 1021.78,821.67C1021.02,823.75 1020.41,826.212 1019.95,829.056C1019.52,831.731 1019.9,833.843 1021.1,835.392C1022.29,836.942 1023.85,837.717 1025.78,837.717C1026.57,837.717 1027.47,837.653 1028.46,837.526C1029.46,837.398 1030.48,837.25 1031.52,837.08L1031.24,848.16C1030.2,848.542 1029.05,848.85 1027.8,849.083C1026.54,849.317 1025.03,849.434 1023.25,849.434Z" style="fill-rule:nonzero;"/>
        </g>
    </g>
</svg>
