<?xml version="1.0" encoding="UTF-8" standalone="no"?>
<!DOCTYPE svg PUBLIC "-//W3C//DTD SVG 1.1//EN" "http://www.w3.org/Graphics/SVG/1.1/DTD/svg11.dtd">
<svg width="100%" height="100%" viewBox="0 0 1115 645" version="1.1" xmlns="http://www.w3.org/2000/svg" xmlns:xlink="http://www.w3.org/1999/xlink" xml:space="preserve" xmlns:serif="http://www.serif.com/" style="fill-rule:evenodd;clip-rule:evenodd;stroke-linecap:round;stroke-miterlimit:10;">
    <g transform="matrix(1,0,0,1,-67.9775,-302.783)">
        <g transform="matrix(-3.60844,2.08333,2.08333,3.60844,-93.8513,35.839)">
            <path d="M-131.314,242.05L-136.446,242.05L-139.012,246.495L-136.446,250.939L-131.314,250.939L-128.748,255.384L-131.314,259.828L-128.748,264.272L-131.314,268.717L-136.446,268.717L-139.012,264.272L-144.144,264.272L-146.71,268.717L-151.842,268.717L-154.408,273.161L-151.842,277.606L-154.408,282.05L-159.54,282.05L-162.106,277.606L-167.238,277.606L-169.804,282.05L-174.936,282.05L-177.502,277.606L-182.634,277.606L-185.2,273.161L-182.634,268.717L-187.766,268.717L-190.332,273.161L-187.766,277.606L-190.332,282.05L-187.766,286.495L-182.634,286.495L-180.068,290.939L-182.634,295.383L-180.069,299.828L-174.937,299.828L-172.37,295.383L-167.238,295.383L-164.673,299.828L-159.54,299.828L-156.974,304.272L-159.54,308.717L-156.974,313.161L-151.842,313.161L-149.276,308.717L-144.144,308.717L-141.578,304.272L-144.144,299.828L-141.578,295.383L-136.446,295.384L-133.88,299.828L-128.748,299.828L-126.182,295.384L-121.05,295.384L-118.484,299.828L-113.352,299.828L-110.786,304.272L-113.352,308.717L-110.786,313.161L-105.654,313.161L-103.088,308.717L-97.956,308.717L-95.39,304.272L-97.956,299.828L-95.39,295.384L-90.258,295.384L-87.692,290.939L-90.258,286.495L-95.39,286.495L-97.956,282.05L-95.39,277.606L-97.956,273.161L-95.39,268.717L-90.258,268.717L-87.692,273.161L-82.56,273.161L-79.994,268.717L-74.862,268.717L-72.296,264.272L-74.862,259.828L-72.296,255.384L-67.164,255.384L-64.598,259.828L-59.466,259.828L-56.9,255.384L-51.768,255.384L-49.202,259.828L-44.07,259.828L-41.504,264.272L-44.07,268.717L-41.504,273.161L-36.372,273.161L-33.806,268.717L-28.674,268.717L-26.108,264.273L-28.674,259.828L-26.108,255.384L-20.976,255.384L-18.41,250.939L-20.976,246.495L-26.108,246.495L-28.674,242.05L-26.108,237.606L-28.674,233.161L-26.108,228.717L-20.976,228.717L-18.41,224.273L-20.976,219.828L-26.108,219.828L-28.674,215.384L-33.806,215.384L-36.372,219.828L-41.504,219.828L-44.07,215.384L-41.504,210.939L-44.07,206.495L-49.202,206.495L-51.768,202.05L-49.202,197.606L-51.768,193.161L-49.202,188.717L-44.07,188.717L-41.504,193.161L-36.372,193.161L-33.806,188.717L-28.674,188.717L-26.108,184.273L-28.674,179.828L-26.108,175.384L-20.976,175.384L-18.41,170.939L-20.976,166.495L-26.108,166.495L-28.674,162.05L-26.108,157.606L-28.674,153.161L-26.108,148.717L-20.976,148.717L-18.41,153.161L-13.278,153.161L-10.712,148.717L-5.58,148.717L-3.014,144.273L-5.58,139.828L-3.014,135.384L2.118,135.384L4.684,139.828L9.816,139.828L12.382,135.384L17.514,135.384L20.08,139.828L25.212,139.828L27.778,144.273L25.212,148.717L30.344,148.717L32.91,144.273L30.344,139.828L32.91,135.384L30.344,130.939L25.212,130.939L22.646,126.495L25.212,122.05L22.646,117.606L17.514,117.606L14.948,122.05L9.816,122.05L7.25,117.606L2.118,117.606L-0.448,113.161L2.118,108.717L-0.448,104.273L-5.58,104.273L-8.146,108.717L-13.278,108.717L-15.844,113.161L-13.278,117.606L-15.844,122.05L-20.976,122.05L-23.542,117.606L-28.674,117.606L-31.24,122.05L-36.372,122.05L-38.938,117.606L-44.07,117.606L-46.636,113.161L-44.07,108.717L-46.636,104.272L-51.768,104.272L-54.334,108.717L-59.466,108.717L-62.032,113.161L-59.466,117.606L-62.032,122.05L-67.164,122.05L-69.73,126.495L-67.164,130.939L-62.032,130.939L-59.466,135.384L-62.032,139.828L-59.466,144.272L-62.032,148.717L-67.164,148.717L-69.73,144.272L-74.862,144.272L-77.428,148.717L-82.56,148.717L-85.126,153.161L-82.56,157.606L-85.126,162.05L-90.258,162.05L-92.824,157.606L-97.956,157.606L-100.522,162.05L-105.654,162.05L-108.22,157.606L-113.352,157.606L-115.918,153.161L-113.352,148.717L-115.918,144.272L-121.05,144.272L-123.616,148.717L-128.748,148.717L-131.314,153.161L-128.748,157.606L-131.314,162.05L-136.446,162.05L-139.012,166.495L-136.446,170.939L-131.314,170.939L-128.748,175.384L-131.314,179.828L-128.748,184.272L-131.314,188.717L-136.446,188.717L-139.012,193.161L-136.446,197.606L-131.314,197.606L-128.748,202.05L-123.616,202.05L-121.05,197.606L-115.918,197.606L-113.352,202.05L-115.918,206.495L-113.352,210.939L-108.22,210.939L-105.654,215.384L-108.22,219.828L-105.654,224.272L-108.22,228.717L-113.352,228.717L-115.918,224.272L-121.05,224.272L-123.616,228.717L-128.748,228.717L-131.314,233.161L-128.748,237.606L-131.314,242.05" style="fill:rgb(150,180,220);fill-rule:nonzero;stroke:black;stroke-width:0.07px;"/>
        </g>
    </g>
</svg>
