<?xml version="1.0" encoding="UTF-8" standalone="no"?>
<!DOCTYPE svg PUBLIC "-//W3C//DTD SVG 1.1//EN" "http://www.w3.org/Graphics/SVG/1.1/DTD/svg11.dtd">
<svg width="100%" height="100%" viewBox="0 0 1366 1261" version="1.1" xmlns="http://www.w3.org/2000/svg" xmlns:xlink="http://www.w3.org/1999/xlink" xml:space="preserve" xmlns:serif="http://www.serif.com/" style="fill-rule:evenodd;clip-rule:evenodd;stroke-linecap:round;stroke-linejoin:round;stroke-miterlimit:1.5;">
    <g transform="matrix(1,0,0,1,-550.72,-613.386)">
        <g>
            <g transform="matrix(-0.065608,-0.113636,0.113636,-0.065608,1278.74,1261.39)">
                <path d="M2357.41,963.675L2357.41,2163.68L1318.17,2763.68L278.944,2163.68L278.944,963.675L1318.17,363.675L2357.41,963.675Z" style="fill:rgb(221,189,149);stroke:black;stroke-width:15.88px;"/>
            </g>
            <g transform="matrix(0.195513,6.45797e-17,-3.22898e-17,0.195513,805.501,1137.21)">
                <path d="M1492.05,954.468L2189.51,1357.15L2189.51,2162.51L1492.05,2565.19L794.585,2162.51L794.585,1357.15L1492.05,954.468Z" style="fill:rgb(221,189,149);stroke:black;stroke-width:10.66px;"/>
            </g>
            <g transform="matrix(-0.065608,0.113636,-0.113636,-0.065608,1225.03,1197.4)">
                <path d="M2357.41,963.675L2357.41,2163.68L1318.17,2763.68L278.944,2163.68L278.944,963.675L1318.17,363.675L2357.41,963.675Z" style="fill:rgb(221,189,149);stroke:black;stroke-width:15.88px;"/>
            </g>
            <g transform="matrix(-0.065608,-0.113636,0.113636,-0.065608,1415.1,1024.27)">
                <path d="M2357.41,963.675L2357.41,2163.68L1318.17,2763.68L278.944,2163.68L278.944,963.675L1318.17,363.675L2357.41,963.675Z" style="fill:rgb(221,189,149);stroke:black;stroke-width:15.88px;"/>
            </g>
            <g transform="matrix(-0.065608,0.113636,-0.113636,-0.065608,952.298,1197.4)">
                <path d="M2357.41,963.675L2357.41,2163.68L1318.17,2763.68L278.944,2163.68L278.944,963.675L1318.17,363.675L2357.41,963.675Z" style="fill:rgb(221,189,149);stroke:black;stroke-width:15.88px;"/>
            </g>
            <g transform="matrix(-0.131216,7.26521e-17,-5.65072e-17,-0.131216,1133.82,1920.09)">
                <path d="M2357.41,963.675L2357.41,2163.68L1318.17,2763.68L278.944,2163.68L278.944,963.675L1318.17,363.675L2357.41,963.675Z" style="fill:rgb(221,189,149);stroke:black;stroke-width:15.88px;"/>
            </g>
            <g transform="matrix(-0.065608,0.113636,-0.113636,-0.065608,1770.48,1667.71)">
                <path d="M2357.41,963.675L2357.41,2163.68L1318.17,2763.68L278.944,2163.68L278.944,963.675L1318.17,363.675L2357.41,963.675Z" style="fill:rgb(221,189,149);stroke:black;stroke-width:15.88px;"/>
            </g>
            <g transform="matrix(-0.131216,7.26521e-17,8.87971e-17,0.131216,1406.55,1509.73)">
                <path d="M2357.41,963.675L2357.41,2163.68L1318.17,2763.68L278.944,2163.68L278.944,963.675L1318.17,363.675L2357.41,963.675Z" style="fill:rgb(221,189,149);stroke:black;stroke-width:15.88px;"/>
            </g>
            <g transform="matrix(-0.131216,3.22898e-17,-4.84348e-17,-0.131216,1133.82,977.066)">
                <path d="M2357.41,963.675L2357.41,2163.68L1318.17,2763.68L278.944,2163.68L278.944,963.675L1318.17,363.675L2357.41,963.675Z" style="fill:rgb(221,189,149);stroke:black;stroke-width:15.88px;"/>
            </g>
            <g transform="matrix(-0.065608,0.113636,-0.113636,-0.065608,1088.66,961.809)">
                <path d="M2357.41,963.675L2357.41,2163.68L1318.17,2763.68L278.944,2163.68L278.944,963.675L1318.17,363.675L2357.41,963.675Z" style="fill:rgb(221,189,149);stroke:black;stroke-width:15.88px;"/>
            </g>
            <g transform="matrix(0.131216,-8.07246e-18,0,0.131216,1060.61,566.708)">
                <path d="M2357.41,963.675L2357.41,2163.68L1318.17,2763.68L278.944,2163.68L278.944,963.675L1318.17,363.675L2357.41,963.675Z" style="fill:rgb(221,189,149);stroke:black;stroke-width:15.88px;"/>
            </g>
            <g transform="matrix(-0.065608,-0.113636,0.113636,-0.065608,1551.46,1261.39)">
                <path d="M2357.41,963.675L2357.41,2163.68L1318.17,2763.68L278.944,2163.68L278.944,963.675L1318.17,363.675L2357.41,963.675Z" style="fill:rgb(221,189,149);stroke:black;stroke-width:15.88px;"/>
            </g>
            <g transform="matrix(0.065608,0.113636,-0.113636,0.065608,1870.24,992.222)">
                <path d="M2357.41,963.675L2357.41,2163.68L1318.17,2763.68L278.944,2163.68L278.944,963.675L1318.17,363.675L2357.41,963.675Z" style="fill:rgb(221,189,149);stroke:black;stroke-width:15.88px;"/>
            </g>
            <g transform="matrix(-0.065608,0.113636,0.113636,0.065608,1551.46,1228.9)">
                <path d="M2357.41,963.675L2357.41,2163.68L1318.17,2763.68L278.944,2163.68L278.944,963.675L1318.17,363.675L2357.41,963.675Z" style="fill:rgb(221,189,149);stroke:black;stroke-width:15.88px;"/>
            </g>
            <g transform="matrix(-0.131216,-1.60693e-17,1.60693e-17,-0.131216,1270.18,1214.19)">
                <path d="M2357.41,963.675L2357.41,2163.68L1318.17,2763.68L278.944,2163.68L278.944,963.675L1318.17,363.675L2357.41,963.675Z" style="fill:rgb(221,189,149);stroke:black;stroke-width:15.88px;"/>
            </g>
            <g transform="matrix(0.065608,-0.113636,0.113636,0.065608,1242.13,1291.81)">
                <path d="M2357.41,963.675L2357.41,2163.68L1318.17,2763.68L278.944,2163.68L278.944,963.675L1318.17,363.675L2357.41,963.675Z" style="fill:rgb(221,189,149);stroke:black;stroke-width:15.88px;"/>
            </g>
            <g transform="matrix(-0.065608,-0.113636,0.113636,-0.065608,733.281,1733.66)">
                <path d="M2357.41,963.675L2357.41,2163.68L1318.17,2763.68L278.944,2163.68L278.944,963.675L1318.17,363.675L2357.41,963.675Z" style="fill:rgb(221,189,149);stroke:black;stroke-width:15.88px;"/>
            </g>
            <g transform="matrix(-0.065608,0.113636,-0.113636,-0.065608,1634.12,1434.08)">
                <path d="M2357.41,963.675L2357.41,2163.68L1318.17,2763.68L278.944,2163.68L278.944,963.675L1318.17,363.675L2357.41,963.675Z" style="fill:rgb(221,189,149);stroke:black;stroke-width:15.88px;"/>
            </g>
        </g>
        <g>
            <g transform="matrix(-0.065608,0.113636,0.113636,0.065608,1551.46,1228.9)">
                <path d="M279,1263.67C279,1263.67 286.949,1263.59 301.331,1263.44C829.814,1257.91 1315.73,972.55 1578,513.7C1578,513.699 1578,513.699 1578,513.699" style="fill:none;stroke:black;stroke-width:31.75px;"/>
            </g>
            <g transform="matrix(-0.140709,-0.243716,0.243716,-0.140709,1280.55,1221.14)">
                <path d="M869.545,1315.1C761.699,1383.4 633.877,1422.96 496.889,1422.96" style="fill:none;stroke:black;stroke-width:14.81px;"/>
            </g>
            <g transform="matrix(-0.140709,-0.243716,-0.243716,0.140709,2008.25,801.004)">
                <path d="M869.545,1315.1C761.699,1383.4 633.877,1422.96 496.889,1422.96" style="fill:none;stroke:black;stroke-width:14.81px;"/>
            </g>
            <g transform="matrix(-0.0405584,-0.0702492,0.0702492,-0.0405584,1456.77,894.612)">
                <circle cx="1004.9" cy="1285.35" r="727.928" style="fill:none;stroke:black;stroke-width:51.37px;"/>
            </g>
            <g transform="matrix(-0.0270389,-0.0468328,0.0468328,-0.0270389,1473.28,853.704)">
                <circle cx="1004.9" cy="1285.35" r="727.928" style="fill:white;stroke:black;stroke-width:77.05px;"/>
            </g>
            <g transform="matrix(-0.065608,-0.113636,0.113636,-0.065608,1415.1,1024.27)">
                <path d="M279,1263.67C279,1263.67 279,1263.67 279.001,1263.67C533.681,1263.67 783.169,1191.66 998.671,1055.93C1091.17,997.476 1200.76,963.675 1318.17,963.675C1649.32,963.675 1918.17,1232.53 1918.17,1563.67C1918.17,1894.82 1649.32,2163.68 1318.17,2163.68C1200.76,2163.68 1091.17,2129.87 998.629,2071.48C783.14,1935.77 533.666,1863.75 279.001,1863.75C279,1863.67 279,1863.67 279,1863.67" style="fill:none;stroke:black;stroke-width:31.75px;"/>
            </g>
            <g transform="matrix(-0.0605187,0.104821,-0.104821,-0.0605187,907.345,1238.55)">
                <circle cx="948.93" cy="1543.5" r="325.228" style="fill:white;stroke:black;stroke-width:34.42px;"/>
            </g>
            <g transform="matrix(-0.065608,0.113636,-0.113636,-0.065608,952.298,1197.4)">
                <path d="M2097.61,813.699C2097.61,813.699 2097.61,813.699 2097.61,813.699C1970.24,1034.32 1907.81,1286.45 1917.52,1541.02C1918.03,1548.53 1918.17,1556.09 1918.17,1563.67C1918.17,1894.82 1649.32,2163.68 1318.17,2163.68C987.026,2163.68 718.175,1894.82 718.175,1563.67C718.175,1556.07 718.317,1548.49 718.598,1540.95C728.335,1286.45 665.934,1034.38 538.591,813.817C538.794,813.699 538.794,813.699 538.794,813.699" style="fill:none;stroke:black;stroke-width:31.75px;"/>
            </g>
            <g transform="matrix(-0.065608,0.113636,-0.113636,-0.065608,952.298,1197.4)">
                <path d="M1058.41,513.699C1058.41,513.699 1058.41,513.701 1058.41,513.706C1112,606.52 1211.03,663.696 1318.2,663.696C1425.38,663.696 1524.41,606.52 1577.99,513.706C1578,513.701 1578,513.699 1578,513.699" style="fill:none;stroke:black;stroke-width:31.75px;"/>
            </g>
            <g transform="matrix(-0.281419,6.45797e-17,-3.22898e-17,-0.281419,964.315,1664.74)">
                <path d="M869.545,1315.1C761.699,1383.4 633.877,1422.96 496.889,1422.96" style="fill:none;stroke:black;stroke-width:14.81px;"/>
            </g>
            <g transform="matrix(-0.281419,6.45797e-17,3.22898e-17,0.281419,964.315,824.463)">
                <path d="M869.545,1315.1C761.699,1383.4 633.877,1422.96 496.889,1422.96" style="fill:none;stroke:black;stroke-width:14.81px;"/>
            </g>
            <g transform="matrix(-0.140709,-0.243716,0.243716,-0.140709,462.368,1693.86)">
                <path d="M869.545,1315.1C761.699,1383.4 633.877,1422.96 496.889,1422.96" style="fill:none;stroke:black;stroke-width:14.81px;"/>
            </g>
            <g transform="matrix(-0.140709,-0.243716,-0.243716,0.140709,1190.07,1273.72)">
                <path d="M869.545,1315.1C761.699,1383.4 633.877,1422.96 496.889,1422.96" style="fill:none;stroke:black;stroke-width:14.81px;"/>
            </g>
            <g transform="matrix(-0.0405584,-0.0702492,0.0702492,-0.0405584,774.94,1446.06)">
                <path d="M1004.9,557.416C1406.66,557.416 1732.83,883.59 1732.83,1285.35C1732.83,1417.86 1697.35,1542.15 1635.37,1649.23" style="fill:none;stroke:black;stroke-width:51.37px;"/>
            </g>
            <g transform="matrix(-0.0405584,0.0702492,-0.0702492,-0.0405584,819.177,1226.14)">
                <circle cx="1004.9" cy="1285.35" r="727.928" style="fill:none;stroke:black;stroke-width:51.37px;"/>
            </g>
            <g transform="matrix(-0.0540778,2.9942e-17,-2.32882e-17,-0.0540778,1015.2,1784.42)">
                <circle cx="1004.9" cy="1285.35" r="727.928" style="fill:white;stroke:black;stroke-width:77.05px;"/>
            </g>
            <g transform="matrix(-0.131216,7.26521e-17,-5.65072e-17,-0.131216,1133.82,1920.09)">
                <path d="M279,1263.67L279.001,1263.67C533.681,1263.67 783.169,1191.66 998.671,1055.93C1091.17,997.476 1200.76,963.675 1318.17,963.675C1649.32,963.675 1918.17,1232.53 1918.17,1563.67C1918.17,1572.37 1917.99,1581.03 1917.62,1589.63C1906.7,1837.76 1968.24,2083.7 2094.74,2297.45C2094.59,2297.54 2094.59,2297.54 2094.59,2297.54" style="fill:none;stroke:black;stroke-width:31.75px;"/>
            </g>
            <g transform="matrix(-0.131216,7.26521e-17,-5.65072e-17,-0.131216,1133.82,1920.09)">
                <path d="M1579.37,2594.58C1492.77,2444.58 1247.32,2228.44 1010.41,2098.81C782.587,1974.15 452.183,1863.67 279,1863.67" style="fill:none;stroke:black;stroke-width:31.75px;"/>
            </g>
            <g transform="matrix(-0.281419,1.45304e-16,-1.29159e-16,-0.281419,1237.04,2135.05)">
                <path d="M869.545,1315.1C761.699,1383.4 633.877,1422.96 496.889,1422.96" style="fill:none;stroke:black;stroke-width:14.81px;"/>
            </g>
            <g transform="matrix(-0.281419,1.45304e-16,1.29159e-16,0.281419,1237.04,1294.77)">
                <path d="M869.545,1315.1C761.699,1383.4 633.877,1422.96 496.889,1422.96" style="fill:none;stroke:black;stroke-width:14.81px;"/>
            </g>
            <g transform="matrix(0.140709,0.243716,-0.243716,0.140709,1186.61,1265.65)">
                <path d="M869.545,1315.1C761.699,1383.4 638.549,1427.17 501.561,1427.17" style="fill:none;stroke:black;stroke-width:14.81px;"/>
            </g>
            <g transform="matrix(0.140709,0.243716,0.243716,-0.140709,458.905,1685.79)">
                <path d="M869.545,1315.1C761.699,1383.4 642.908,1419.41 505.919,1419.41" style="fill:none;stroke:black;stroke-width:14.81px;"/>
            </g>
            <g transform="matrix(-0.0811168,4.43985e-17,-3.63261e-17,-0.0811168,1042.37,1819.17)">
                <circle cx="1004.9" cy="1285.35" r="727.928" style="fill:none;stroke:black;stroke-width:51.37px;"/>
            </g>
            <g transform="matrix(-0.0270389,0.0468328,-0.0468328,-0.0270389,1593,1702.98)">
                <circle cx="1004.9" cy="1285.35" r="727.928" style="fill:white;stroke:black;stroke-width:77.05px;"/>
            </g>
            <g transform="matrix(-0.065608,0.113636,-0.113636,-0.065608,1769.81,1668.09)">
                <path d="M1578,2613.65C1578,2613.65 1578,2613.65 1577.99,2613.64C1524.41,2520.83 1425.38,2463.65 1318.2,2463.65C1211.03,2463.65 1112,2520.83 1058.41,2613.64C1058.41,2613.65 1058.41,2613.65 1058.41,2613.65" style="fill:none;stroke:black;stroke-width:31.75px;"/>
            </g>
            <g transform="matrix(-0.065608,0.113636,-0.113636,-0.065608,1769.81,1668.09)">
                <path d="M538.794,2313.65C538.794,2313.65 538.798,2313.64 538.808,2313.63C592.386,2220.81 592.381,2106.47 538.794,2013.66C485.206,1920.85 386.178,1863.67 279.009,1863.67C279.003,1863.67 279,1863.67 279,1863.67" style="fill:none;stroke:black;stroke-width:31.75px;"/>
            </g>
            <g transform="matrix(-0.065608,0.113636,-0.113636,-0.065608,1769.81,1668.09)">
                <path d="M279,1263.67C279,1263.67 279,1263.67 279.001,1263.67C533.681,1263.67 783.169,1191.66 998.671,1055.93C1091.17,997.476 1200.76,963.675 1318.17,963.675C1649.32,963.675 1918.17,1232.53 1918.17,1563.67C1918.17,1571.26 1918.03,1578.82 1917.75,1586.34C1908.04,1840.86 1970.46,2092.95 2097.82,2313.53C2097.61,2313.65 2097.61,2313.65 2097.61,2313.65" style="fill:none;stroke:black;stroke-width:31.75px;"/>
            </g>
            <g transform="matrix(-0.0405584,0.0702492,-0.0702492,-0.0405584,1636.69,1539.38)">
                <path d="M1004.9,557.416C1406.66,557.416 1732.83,883.59 1732.83,1285.35C1732.83,1417.86 1697.35,1542.15 1635.37,1649.23" style="fill:none;stroke:black;stroke-width:51.37px;"/>
            </g>
            <g transform="matrix(-0.140709,0.243716,-0.243716,-0.140709,2007.58,1686.17)">
                <path d="M869.545,1315.1C761.699,1383.4 633.877,1422.96 496.889,1422.96" style="fill:none;stroke:black;stroke-width:14.81px;"/>
            </g>
            <g transform="matrix(-0.140709,0.243716,0.243716,0.140709,1279.88,1266.03)">
                <path d="M869.545,1315.1C761.699,1383.4 633.877,1422.96 496.889,1422.96" style="fill:none;stroke:black;stroke-width:14.81px;"/>
            </g>
            <g transform="matrix(0.281419,-2.09884e-16,1.77594e-16,0.281419,1229.45,1295.15)">
                <path d="M869.545,1315.1C761.699,1383.4 633.877,1422.96 496.889,1422.96" style="fill:none;stroke:black;stroke-width:14.81px;"/>
            </g>
            <g transform="matrix(0.281419,-2.09884e-16,-1.77594e-16,-0.281419,1229.45,2135.43)">
                <path d="M869.545,1315.1C761.699,1383.4 633.877,1422.96 496.889,1422.96" style="fill:none;stroke:black;stroke-width:14.81px;"/>
            </g>
            <g transform="matrix(0.140709,0.243716,-0.243716,0.140709,1731.39,1266.03)">
                <path d="M869.545,1315.1C761.699,1383.4 633.877,1422.96 496.889,1422.96" style="fill:none;stroke:black;stroke-width:14.81px;"/>
            </g>
            <g transform="matrix(0.140709,0.243716,0.243716,-0.140709,1002.69,1686.17)">
                <path d="M869.545,1315.1C761.699,1383.4 633.877,1422.96 496.889,1422.96" style="fill:none;stroke:black;stroke-width:14.81px;"/>
            </g>
            <g transform="matrix(0.0405584,0.0702492,-0.0702492,0.0405584,1418.82,1513.84)">
                <path d="M1004.9,557.416C1406.66,557.416 1732.83,883.59 1732.83,1285.35C1732.83,1417.86 1697.35,1542.15 1635.37,1649.23" style="fill:none;stroke:black;stroke-width:51.37px;"/>
            </g>
            <g transform="matrix(-0.0405584,0.0702492,-0.0702492,-0.0405584,1636.69,1696.83)">
                <circle cx="1004.9" cy="1285.35" r="727.928" style="fill:none;stroke:black;stroke-width:51.37px;"/>
            </g>
            <g transform="matrix(-0.0540778,2.9942e-17,3.65958e-17,0.0540778,1287.92,1645.4)">
                <circle cx="1004.9" cy="1285.35" r="727.928" style="fill:white;stroke:black;stroke-width:77.05px;"/>
            </g>
            <g transform="matrix(-0.131216,7.26521e-17,8.87971e-17,0.131216,1406.55,1509.73)">
                <path d="M279,1263.67C279,1263.67 296.916,1263.49 327.622,1263.17C839.939,1257.81 1311.12,981.574 1566.02,537.143C1566.02,537.142 1566.02,537.142 1566.02,537.142" style="fill:none;stroke:black;stroke-width:31.75px;"/>
            </g>
            <g transform="matrix(-0.131216,7.26521e-17,8.87971e-17,0.131216,1406.55,1509.73)">
                <path d="M2106.25,828.292C2106.25,828.292 2106.25,828.293 2106.25,828.295C2051.94,916.384 2049.54,1026.96 2099.98,1117.32C2150.43,1207.68 2245.81,1263.67 2349.3,1263.67C2354.56,1263.67 2357.41,1263.67 2357.41,1263.67" style="fill:none;stroke:black;stroke-width:31.75px;"/>
            </g>
            <g transform="matrix(-0.131216,7.26521e-17,8.87971e-17,0.131216,1406.55,1509.73)">
                <path d="M2357.41,1863.67L2357.41,1863.67C2102.7,1863.67 1853.19,1935.69 1637.66,2071.42C1545.17,2129.88 1435.59,2163.68 1318.17,2163.68C1200.76,2163.68 1091.17,2129.87 998.629,2071.48C783.14,1935.77 533.666,1863.75 279.001,1863.75C279,1863.67 279,1863.67 279,1863.67" style="fill:none;stroke:black;stroke-width:31.75px;"/>
            </g>
            <g transform="matrix(-0.281419,1.61449e-16,1.93739e-16,0.281419,1509.77,1294.77)">
                <path d="M869.545,1315.1C761.699,1383.4 633.877,1422.96 496.889,1422.96" style="fill:none;stroke:black;stroke-width:14.81px;"/>
            </g>
            <g transform="matrix(-0.281419,1.61449e-16,-1.93739e-16,-0.281419,1509.77,2135.05)">
                <path d="M869.545,1315.1C761.699,1383.4 633.877,1422.96 496.889,1422.96" style="fill:none;stroke:black;stroke-width:14.81px;"/>
            </g>
            <g transform="matrix(0.140709,0.243716,0.243716,-0.140709,731.632,1685.79)">
                <path d="M869.545,1315.1C761.699,1383.4 633.877,1422.96 496.889,1422.96" style="fill:none;stroke:black;stroke-width:14.81px;"/>
            </g>
            <g transform="matrix(0.140709,0.243716,-0.243716,0.140709,1459.34,1265.65)">
                <path d="M869.545,1315.1C761.699,1383.4 638.181,1427.73 501.192,1427.73" style="fill:none;stroke:black;stroke-width:14.81px;"/>
            </g>
            <g transform="matrix(0.281419,-6.45797e-17,-9.68695e-17,-0.281419,957.39,2135.05)">
                <path d="M869.545,1315.1C761.699,1383.4 633.877,1422.96 496.889,1422.96" style="fill:none;stroke:black;stroke-width:14.81px;"/>
            </g>
            <g transform="matrix(0.281419,-6.45797e-17,9.68695e-17,0.281419,957.39,1294.77)">
                <path d="M869.545,1315.1C761.699,1383.4 633.877,1422.96 496.889,1422.96" style="fill:none;stroke:black;stroke-width:14.81px;"/>
            </g>
            <g transform="matrix(0.0811168,-3.22898e-17,-4.43985e-17,-0.0811168,1015.71,1740.46)">
                <path d="M1004.9,557.416C1406.66,557.416 1732.83,883.59 1732.83,1285.35C1732.83,1417.86 1697.35,1542.15 1635.37,1649.23" style="fill:none;stroke:black;stroke-width:51.37px;"/>
            </g>
            <g transform="matrix(-0.0811168,4.43985e-17,5.65072e-17,0.0811168,1315.09,1610.65)">
                <circle cx="1004.9" cy="1285.35" r="727.928" style="fill:none;stroke:black;stroke-width:51.37px;"/>
            </g>
            <g transform="matrix(-0.0270389,-0.0468328,0.0468328,-0.0270389,1336.92,1090.83)">
                <circle cx="1004.9" cy="1285.35" r="727.928" style="fill:white;stroke:black;stroke-width:77.05px;"/>
            </g>
            <g transform="matrix(-0.065608,-0.113636,0.113636,-0.065608,1278.74,1261.39)">
                <path d="M279,1263.67C279,1263.67 286.949,1263.59 301.331,1263.44C829.814,1257.91 1315.73,972.55 1578,513.7C1578,513.699 1578,513.699 1578,513.699" style="fill:none;stroke:black;stroke-width:31.75px;"/>
            </g>
            <g transform="matrix(-0.065608,-0.113636,0.113636,-0.065608,1278.74,1261.39)">
                <path d="M2097.61,813.699C2097.61,813.699 2097.61,813.701 2097.61,813.706C2044.02,906.52 2044.02,1020.87 2097.61,1113.68C2151.19,1206.5 2250.22,1263.67 2357.4,1263.67C2357.4,1263.67 2357.41,1263.67 2357.41,1263.67" style="fill:none;stroke:black;stroke-width:31.75px;"/>
            </g>
            <g transform="matrix(-0.065608,-0.113636,0.113636,-0.065608,1278.74,1261.39)">
                <path d="M2357.41,1863.67L2357.41,1863.67C2102.7,1863.67 1853.19,1935.69 1637.66,2071.42C1545.17,2129.88 1435.59,2163.68 1318.17,2163.68C1200.76,2163.68 1091.17,2129.87 998.629,2071.48C783.14,1935.77 533.666,1863.75 279.001,1863.75C279,1863.67 279,1863.67 279,1863.67" style="fill:none;stroke:black;stroke-width:31.75px;"/>
            </g>
            <g transform="matrix(-0.140709,-0.243716,0.243716,-0.140709,1144.19,1458.27)">
                <path d="M869.545,1315.1C761.699,1383.4 633.877,1422.96 496.889,1422.96" style="fill:none;stroke:black;stroke-width:14.81px;"/>
            </g>
            <g transform="matrix(-0.140709,-0.243716,-0.243716,0.140709,1871.89,1038.13)">
                <path d="M869.545,1315.1C761.699,1383.4 633.877,1422.96 496.889,1422.96" style="fill:none;stroke:black;stroke-width:14.81px;"/>
            </g>
            <g transform="matrix(0.281419,-1.61449e-16,1.93739e-16,0.281419,1093.75,588.872)">
                <path d="M869.545,1315.1C761.699,1383.4 633.877,1422.96 496.889,1422.96" style="fill:none;stroke:black;stroke-width:14.81px;"/>
            </g>
            <g transform="matrix(0.281419,-1.61449e-16,-1.93739e-16,-0.281419,1093.75,1429.15)">
                <path d="M869.545,1315.1C761.699,1383.4 633.877,1422.96 496.889,1422.96" style="fill:none;stroke:black;stroke-width:14.81px;"/>
            </g>
            <g transform="matrix(0.140709,0.243716,-0.243716,0.140709,1595.7,559.754)">
                <path d="M869.545,1315.1C761.699,1383.4 633.877,1422.96 496.889,1422.96" style="fill:none;stroke:black;stroke-width:14.81px;"/>
            </g>
            <g transform="matrix(0.140709,0.243716,0.243716,-0.140709,867.996,979.895)">
                <path d="M869.545,1315.1C761.699,1383.4 633.877,1422.96 496.889,1422.96" style="fill:none;stroke:black;stroke-width:14.81px;"/>
            </g>
            <g transform="matrix(0.0405584,0.0702492,-0.0702492,0.0405584,1283.13,807.559)">
                <path d="M1004.9,557.416C1406.66,557.416 1732.83,883.59 1732.83,1285.35C1732.83,1417.86 1697.35,1542.15 1635.37,1649.23" style="fill:none;stroke:black;stroke-width:51.37px;"/>
            </g>
            <g transform="matrix(-0.0405584,-0.0702492,0.0702492,-0.0405584,1320.41,1131.74)">
                <circle cx="1004.9" cy="1285.35" r="727.928" style="fill:none;stroke:black;stroke-width:51.37px;"/>
            </g>
            <g transform="matrix(-0.281419,9.68695e-17,-1.29159e-16,-0.281419,1237.04,1192.03)">
                <path d="M869.545,1315.1C761.699,1383.4 633.877,1422.96 496.889,1422.96" style="fill:none;stroke:black;stroke-width:14.81px;"/>
            </g>
            <g transform="matrix(-0.281419,9.68695e-17,1.29159e-16,0.281419,1237.04,351.747)">
                <path d="M869.545,1315.1C761.699,1383.4 633.877,1422.96 496.889,1422.96" style="fill:none;stroke:black;stroke-width:14.81px;"/>
            </g>
            <g transform="matrix(-0.0811168,2.01812e-17,-3.22898e-17,-0.0811168,1042.37,876.15)">
                <circle cx="1004.9" cy="1285.35" r="727.928" style="fill:none;stroke:black;stroke-width:51.37px;"/>
            </g>
            <g transform="matrix(-0.0540778,1.21087e-17,-2.01812e-17,-0.0540778,1015.2,841.396)">
                <circle cx="1004.9" cy="1285.35" r="727.928" style="fill:none;stroke:black;stroke-width:77.05px;"/>
            </g>
            <g transform="matrix(-0.131216,3.22898e-17,-4.84348e-17,-0.131216,1133.82,977.066)">
                <path d="M279,1263.67C279,1263.67 279,1263.67 279.001,1263.67C533.681,1263.67 783.169,1191.66 998.671,1055.93C1091.17,997.476 1200.76,963.675 1318.17,963.675C1649.32,963.675 1918.17,1232.53 1918.17,1563.67C1918.17,1894.82 1649.32,2163.68 1318.17,2163.68C1200.76,2163.68 1091.17,2129.87 998.629,2071.48C783.14,1935.77 533.666,1863.75 279.001,1863.75C279,1863.67 279,1863.67 279,1863.67" style="fill:none;stroke:black;stroke-width:31.75px;"/>
            </g>
            <g transform="matrix(-0.0605187,0.104821,-0.104821,-0.0605187,1043.71,1002.95)">
                <circle cx="948.93" cy="1543.5" r="325.228" style="fill:none;stroke:black;stroke-width:34.42px;"/>
            </g>
            <g transform="matrix(-0.065608,0.113636,-0.113636,-0.065608,1088.66,961.809)">
                <path d="M2097.61,813.699C2097.61,813.699 2097.61,813.699 2097.61,813.699C1970.24,1034.32 1907.81,1286.45 1917.52,1541.02C1918.03,1548.53 1918.17,1556.09 1918.17,1563.67C1918.17,1894.82 1649.32,2163.68 1318.17,2163.68C987.026,2163.68 718.175,1894.82 718.175,1563.67C718.175,1556.07 718.317,1548.49 718.598,1540.95C728.335,1286.45 665.934,1034.38 538.591,813.817C538.794,813.699 538.794,813.699 538.794,813.699" style="fill:none;stroke:black;stroke-width:31.75px;"/>
            </g>
            <g transform="matrix(-0.065608,0.113636,-0.113636,-0.065608,1088.66,961.809)">
                <path d="M1058.41,513.699C1058.41,513.699 1058.41,513.701 1058.41,513.706C1112,606.52 1211.03,663.696 1318.2,663.696C1425.38,663.696 1524.41,606.52 1577.99,513.706C1578,513.701 1578,513.699 1578,513.699" style="fill:none;stroke:black;stroke-width:31.75px;"/>
            </g>
            <g transform="matrix(-0.281419,1.45304e-16,-9.68695e-17,-0.281419,1100.68,1429.15)">
                <path d="M869.545,1315.1C761.699,1383.4 633.877,1422.96 496.889,1422.96" style="fill:none;stroke:black;stroke-width:14.81px;"/>
            </g>
            <g transform="matrix(-0.281419,1.45304e-16,9.68695e-17,0.281419,1100.68,588.872)">
                <path d="M869.545,1315.1C761.699,1383.4 633.877,1422.96 496.889,1422.96" style="fill:none;stroke:black;stroke-width:14.81px;"/>
            </g>
            <g transform="matrix(-0.140709,-0.243716,0.243716,-0.140709,598.732,1458.27)">
                <path d="M869.545,1315.1C761.699,1383.4 633.877,1422.96 496.889,1422.96" style="fill:none;stroke:black;stroke-width:14.81px;"/>
            </g>
            <g transform="matrix(-0.140709,-0.243716,-0.243716,0.140709,1326.44,1038.13)">
                <path d="M869.545,1315.1C761.699,1383.4 633.877,1422.96 496.889,1422.96" style="fill:none;stroke:black;stroke-width:14.81px;"/>
            </g>
            <g transform="matrix(-0.0405584,-0.0702492,0.0702492,-0.0405584,911.303,1210.47)">
                <path d="M1004.9,557.416C1406.66,557.416 1732.83,883.59 1732.83,1285.35C1732.83,1417.86 1697.35,1542.15 1635.37,1649.23" style="fill:none;stroke:black;stroke-width:51.37px;"/>
            </g>
            <g transform="matrix(-0.0405584,0.0702492,-0.0702492,-0.0405584,955.54,990.55)">
                <circle cx="1004.9" cy="1285.35" r="727.928" style="fill:none;stroke:black;stroke-width:51.37px;"/>
            </g>
            <g transform="matrix(0.0540778,-3.32689e-18,0,0.0540778,1179.24,702.378)">
                <circle cx="1004.9" cy="1285.35" r="727.928" style="fill:none;stroke:black;stroke-width:77.05px;"/>
            </g>
            <g transform="matrix(0.131216,-8.07246e-18,0,0.131216,1060.61,566.708)">
                <path d="M279,1263.67L279.001,1263.67C533.681,1263.67 783.169,1191.66 998.671,1055.93C1091.17,997.476 1200.76,963.675 1318.17,963.675C1649.32,963.675 1918.17,1232.53 1918.17,1563.67C1918.17,1571.26 1918.03,1578.82 1917.75,1586.34C1908.04,1840.86 1970.46,2092.95 2097.82,2313.53C2097.61,2313.65 2097.61,2313.65 2097.61,2313.65" style="fill:none;stroke:black;stroke-width:31.75px;"/>
            </g>
            <g transform="matrix(0.131216,-8.07246e-18,0,0.131216,1060.61,566.708)">
                <path d="M1578,2613.65C1491.4,2463.66 1247.32,2228.44 1010.41,2098.81C782.587,1974.15 452.183,1863.67 279,1863.67" style="fill:none;stroke:black;stroke-width:31.75px;"/>
            </g>
            <g transform="matrix(0.281419,-3.22898e-17,0,0.281419,957.39,351.747)">
                <path d="M869.545,1315.1C761.699,1383.4 633.877,1422.96 496.889,1422.96" style="fill:none;stroke:black;stroke-width:14.81px;"/>
            </g>
            <g transform="matrix(0.281419,-3.22898e-17,0,-0.281419,957.39,1192.03)">
                <path d="M869.545,1315.1C761.699,1383.4 633.877,1422.96 496.889,1422.96" style="fill:none;stroke:black;stroke-width:14.81px;"/>
            </g>
            <g transform="matrix(-0.140709,-0.243716,0.243716,-0.140709,1007.82,1221.14)">
                <path d="M869.545,1315.1C761.699,1383.4 633.877,1422.96 496.889,1422.96" style="fill:none;stroke:black;stroke-width:14.81px;"/>
            </g>
            <g transform="matrix(-0.140709,-0.243716,-0.243716,0.140709,1735.53,801.004)">
                <path d="M869.545,1315.1C761.699,1383.4 633.877,1422.96 496.889,1422.96" style="fill:none;stroke:black;stroke-width:14.81px;"/>
            </g>
            <g transform="matrix(0.0811168,-8.07246e-18,0,0.0811168,1152.07,667.624)">
                <circle cx="1004.9" cy="1285.35" r="727.928" style="fill:none;stroke:black;stroke-width:51.37px;"/>
            </g>
            <g transform="matrix(-0.0270389,-0.0468328,0.0468328,-0.0270389,1609.65,1090.83)">
                <circle cx="1004.9" cy="1285.35" r="727.928" style="fill:none;stroke:black;stroke-width:77.05px;"/>
            </g>
            <g transform="matrix(-0.065608,-0.113636,0.113636,-0.065608,1551.46,1261.39)">
                <path d="M2357.41,1863.67C2357.41,1863.67 2357.41,1863.67 2357.41,1863.67C2102.7,1863.67 1853.19,1935.69 1637.66,2071.42C1545.17,2129.88 1435.59,2163.68 1318.17,2163.68C1200.76,2163.68 1091.17,2129.87 998.629,2071.48C783.14,1935.77 533.666,1863.75 279.001,1863.75C279,1863.67 279,1863.67 279,1863.67" style="fill:none;stroke:black;stroke-width:31.75px;"/>
            </g>
            <g transform="matrix(-0.065608,-0.113636,0.113636,-0.065608,1551.46,1261.39)">
                <path d="M279,1263.67C279,1263.67 279,1263.67 279.001,1263.67C533.681,1263.67 783.169,1191.66 998.671,1055.93C1091.17,997.476 1200.76,963.675 1318.17,963.675C1435.59,963.675 1545.17,997.472 1637.71,1055.86C1853.22,1191.58 2102.72,1263.6 2357.41,1263.6C2357.41,1263.67 2357.41,1263.67 2357.41,1263.67" style="fill:none;stroke:black;stroke-width:31.75px;"/>
            </g>
            <g transform="matrix(-0.140709,-0.243716,0.243716,-0.140709,1416.91,1458.27)">
                <path d="M869.545,1315.1C761.699,1383.4 633.877,1422.96 496.889,1422.96" style="fill:none;stroke:black;stroke-width:14.81px;"/>
            </g>
            <g transform="matrix(-0.140709,-0.243716,-0.243716,0.140709,2144.62,1038.13)">
                <path d="M869.545,1315.1C761.699,1383.4 633.877,1422.96 496.889,1422.96" style="fill:none;stroke:black;stroke-width:14.81px;"/>
            </g>
            <g transform="matrix(0.140709,0.243716,-0.243716,0.140709,1868.43,559.754)">
                <path d="M869.545,1315.1C761.699,1383.4 633.877,1422.96 496.889,1422.96" style="fill:none;stroke:black;stroke-width:14.81px;"/>
            </g>
            <g transform="matrix(0.140709,0.243716,0.243716,-0.140709,1140.72,979.895)">
                <path d="M869.545,1315.1C761.699,1383.4 633.877,1422.96 496.889,1422.96" style="fill:none;stroke:black;stroke-width:14.81px;"/>
            </g>
            <g transform="matrix(-0.0405584,-0.0702492,0.0702492,-0.0405584,1593.13,1131.74)">
                <circle cx="1004.9" cy="1285.35" r="727.928" style="fill:none;stroke:black;stroke-width:51.37px;"/>
            </g>
            <g transform="matrix(0.0270389,0.0468328,-0.0468328,0.0270389,1812.06,1162.79)">
                <circle cx="1004.9" cy="1285.35" r="727.928" style="fill:none;stroke:black;stroke-width:77.05px;"/>
            </g>
            <g transform="matrix(0.065608,0.113636,-0.113636,0.065608,1870.24,992.222)">
                <path d="M1578,2613.65C1578,2613.65 1578,2613.65 1577.99,2613.64C1524.41,2520.83 1425.38,2463.65 1318.2,2463.65C1211.03,2463.65 1112,2520.83 1058.41,2613.64C1058.41,2613.65 1058.41,2613.65 1058.41,2613.65" style="fill:none;stroke:black;stroke-width:31.75px;"/>
            </g>
            <g transform="matrix(0.065608,0.113636,-0.113636,0.065608,1870.24,992.222)">
                <path d="M538.794,2313.65C538.794,2313.65 538.798,2313.64 538.808,2313.63C592.386,2220.81 592.381,2106.47 538.794,2013.66C485.206,1920.85 386.178,1863.67 279.009,1863.67C279.003,1863.67 279,1863.67 279,1863.67" style="fill:none;stroke:black;stroke-width:31.75px;"/>
            </g>
            <g transform="matrix(0.065608,0.113636,-0.113636,0.065608,1870.24,992.222)">
                <path d="M279,1263.67C279,1263.67 279,1263.67 279.001,1263.67C533.681,1263.67 783.169,1191.66 998.671,1055.93C1091.17,997.476 1200.76,963.675 1318.17,963.675C1649.32,963.675 1918.17,1232.53 1918.17,1563.67C1918.17,1571.26 1918.03,1578.82 1917.75,1586.34C1908.04,1840.86 1970.46,2092.95 2097.82,2313.53C2097.61,2313.65 2097.61,2313.65 2097.61,2313.65" style="fill:none;stroke:black;stroke-width:31.75px;"/>
            </g>
            <g transform="matrix(0.0405584,0.0702492,-0.0702492,0.0405584,1692.22,1043.15)">
                <path d="M1004.9,557.416C1406.66,557.416 1732.83,883.59 1732.83,1285.35C1732.83,1417.86 1697.35,1542.15 1635.37,1649.23" style="fill:none;stroke:black;stroke-width:51.37px;"/>
            </g>
            <g transform="matrix(0.140709,0.243716,-0.243716,0.140709,2004.79,795.346)">
                <path d="M869.545,1315.1C761.699,1383.4 633.877,1422.96 496.889,1422.96" style="fill:none;stroke:black;stroke-width:14.81px;"/>
            </g>
            <g transform="matrix(0.140709,0.243716,0.243716,-0.140709,1277.09,1215.49)">
                <path d="M869.545,1315.1C761.699,1383.4 633.877,1422.96 496.889,1422.96" style="fill:none;stroke:black;stroke-width:14.81px;"/>
            </g>
            <g transform="matrix(0.140709,-0.243716,0.243716,0.140709,1277.09,1273.72)">
                <path d="M869.545,1315.1C761.699,1383.4 633.877,1422.96 496.889,1422.96" style="fill:none;stroke:black;stroke-width:14.81px;"/>
            </g>
            <g transform="matrix(0.140709,-0.243716,-0.243716,-0.140709,2004.79,1693.86)">
                <path d="M869.545,1315.1C761.699,1383.4 633.877,1422.96 496.889,1422.96" style="fill:none;stroke:black;stroke-width:14.81px;"/>
            </g>
            <g transform="matrix(0.281419,-1.13798e-16,1.48424e-16,0.281419,1502.84,824.463)">
                <path d="M869.545,1315.1C761.699,1383.4 633.877,1422.96 496.889,1422.96" style="fill:none;stroke:black;stroke-width:14.81px;"/>
            </g>
            <g transform="matrix(0.281419,-1.13798e-16,-1.48424e-16,-0.281419,1502.84,1664.74)">
                <path d="M869.545,1315.1C761.699,1383.4 633.877,1422.96 496.889,1422.96" style="fill:none;stroke:black;stroke-width:14.81px;"/>
            </g>
            <g transform="matrix(0.0811168,4.14101e-17,-3.14294e-17,0.0811168,1561.16,1219.06)">
                <path d="M1004.9,557.416C1406.66,557.416 1732.83,883.59 1732.83,1285.35C1732.83,1417.86 1697.35,1542.15 1635.37,1649.23" style="fill:none;stroke:black;stroke-width:51.37px;"/>
            </g>
            <g transform="matrix(0.0405584,0.0702492,-0.0702492,0.0405584,1828.57,1121.88)">
                <circle cx="1004.9" cy="1285.35" r="727.928" style="fill:none;stroke:black;stroke-width:51.37px;"/>
            </g>
            <g transform="matrix(-0.0270389,0.0468328,0.0468328,0.0270389,1609.65,1399.46)">
                <circle cx="1004.9" cy="1285.35" r="727.928" style="fill:none;stroke:black;stroke-width:77.05px;"/>
            </g>
            <g transform="matrix(-0.065608,0.113636,0.113636,0.065608,1551.46,1228.9)">
                <path d="M2097.61,813.699C2097.61,813.699 2097.61,813.701 2097.61,813.704C2044.93,904.948 2045.65,1017.53 2099.49,1108.09C2153.34,1198.65 2251.9,1253.06 2357.23,1250.36C2358.35,1250.33 2358.93,1250.32 2358.93,1250.32" style="fill:none;stroke:black;stroke-width:31.75px;"/>
            </g>
            <g transform="matrix(-0.065608,0.113636,0.113636,0.065608,1551.46,1228.9)">
                <path d="M2362.06,1848.16C2362.06,1848.16 2362.06,1848.16 2362.06,1848.16C2105.71,1855.75 1856.16,1932.41 1639.77,2070.06C1546.84,2129.36 1436.48,2163.68 1318.17,2163.68C1200.76,2163.68 1091.17,2129.87 998.629,2071.48C783.14,1935.77 533.666,1863.75 279.001,1863.75C279,1863.67 279,1863.67 279,1863.67" style="fill:none;stroke:black;stroke-width:31.75px;"/>
            </g>
            <g transform="matrix(-0.140709,0.243716,0.243716,0.140709,1416.91,1032.02)">
                <path d="M869.545,1315.1C761.699,1383.4 633.877,1422.96 496.889,1422.96" style="fill:none;stroke:black;stroke-width:14.81px;"/>
            </g>
            <g transform="matrix(-0.140709,0.243716,-0.243716,-0.140709,2144.62,1452.16)">
                <path d="M869.545,1315.1C761.699,1383.4 633.877,1422.96 496.889,1422.96" style="fill:none;stroke:black;stroke-width:14.81px;"/>
            </g>
            <g transform="matrix(0.281419,3.44638e-17,3.44638e-17,-0.281419,1366.48,1901.42)">
                <path d="M869.545,1315.1C761.699,1383.4 633.877,1422.96 496.889,1422.96" style="fill:none;stroke:black;stroke-width:14.81px;"/>
            </g>
            <g transform="matrix(0.281419,3.44638e-17,-3.44638e-17,0.281419,1366.48,1061.14)">
                <path d="M869.545,1315.1C761.699,1383.4 633.877,1422.96 496.889,1422.96" style="fill:none;stroke:black;stroke-width:14.81px;"/>
            </g>
            <g transform="matrix(0.140709,-0.243716,-0.243716,-0.140709,1868.43,1930.54)">
                <path d="M869.545,1315.1C761.699,1383.4 637.926,1426.13 500.937,1426.13" style="fill:none;stroke:black;stroke-width:14.81px;"/>
            </g>
            <g transform="matrix(0.140709,-0.243716,0.243716,0.140709,1140.72,1510.4)">
                <path d="M869.545,1315.1C761.699,1383.4 632.887,1417.88 495.898,1417.88" style="fill:none;stroke:black;stroke-width:14.81px;"/>
            </g>
            <g transform="matrix(0.0405584,-0.0702492,-0.0702492,-0.0405584,1555.86,1682.73)">
                <path d="M996.224,578.48C1397.98,578.48 1732.83,883.59 1732.83,1285.35C1732.83,1417.86 1697.35,1542.15 1635.37,1649.23" style="fill:none;stroke:black;stroke-width:51.37px;"/>
            </g>
            <g transform="matrix(-0.0405584,0.0702492,0.0702492,0.0405584,1593.13,1358.55)">
                <circle cx="1004.9" cy="1285.35" r="727.928" style="fill:none;stroke:black;stroke-width:51.37px;"/>
            </g>
            <g transform="matrix(-0.0540778,-6.62263e-18,6.62263e-18,-0.0540778,1151.56,1078.52)">
                <circle cx="1004.9" cy="1285.35" r="727.928" style="fill:none;stroke:black;stroke-width:77.05px;"/>
            </g>
            <g transform="matrix(-0.131216,-1.60693e-17,1.60693e-17,-0.131216,1270.18,1214.19)">
                <path d="M279,1263.67C279,1263.67 286.949,1263.59 301.331,1263.44C829.814,1257.91 1315.73,972.55 1578,513.7C1578,513.699 1578,513.699 1578,513.699" style="fill:none;stroke:black;stroke-width:31.75px;"/>
            </g>
            <g transform="matrix(-0.131216,-1.60693e-17,1.60693e-17,-0.131216,1270.18,1214.19)">
                <path d="M2097.61,813.699C2097.61,813.699 2097.61,813.701 2097.61,813.706C2044.02,906.52 2044.02,1020.87 2097.61,1113.68C2151.19,1206.5 2250.22,1263.67 2357.4,1263.67C2357.4,1263.67 2357.41,1263.67 2357.41,1263.67" style="fill:none;stroke:black;stroke-width:31.75px;"/>
            </g>
            <g transform="matrix(-0.131216,-1.60693e-17,1.60693e-17,-0.131216,1270.18,1214.19)">
                <path d="M2357.41,1863.67C2357.41,1863.67 2357.41,1863.67 2357.41,1863.67C2102.7,1863.67 1853.19,1935.69 1637.66,2071.42C1545.17,2129.88 1435.59,2163.68 1318.17,2163.68C1200.76,2163.68 1091.17,2129.87 998.629,2071.48C783.14,1935.77 533.666,1863.75 279.001,1863.75C279,1863.67 279,1863.67 279,1863.67" style="fill:none;stroke:black;stroke-width:31.75px;"/>
            </g>
            <g transform="matrix(-0.281419,-3.44638e-17,3.44638e-17,-0.281419,1373.41,1429.15)">
                <path d="M869.545,1315.1C761.699,1383.4 633.877,1422.96 496.889,1422.96" style="fill:none;stroke:black;stroke-width:14.81px;"/>
            </g>
            <g transform="matrix(-0.281419,-3.44638e-17,-3.44638e-17,0.281419,1373.41,588.872)">
                <path d="M869.545,1315.1C761.699,1383.4 633.877,1422.96 496.889,1422.96" style="fill:none;stroke:black;stroke-width:14.81px;"/>
            </g>
            <g transform="matrix(0.140709,-0.243716,0.243716,0.140709,595.269,1038.13)">
                <path d="M869.545,1315.1C761.699,1383.4 633.877,1422.96 496.889,1422.96" style="fill:none;stroke:black;stroke-width:14.81px;"/>
            </g>
            <g transform="matrix(0.140709,-0.243716,-0.243716,-0.140709,1322.97,1458.27)">
                <path d="M869.545,1315.1C761.699,1383.4 633.877,1422.96 496.889,1422.96" style="fill:none;stroke:black;stroke-width:14.81px;"/>
            </g>
            <g transform="matrix(0.281419,-7.48893e-17,7.48893e-17,0.281419,821.026,588.872)">
                <path d="M869.545,1315.1C761.699,1383.4 633.877,1422.96 496.889,1422.96" style="fill:none;stroke:black;stroke-width:14.81px;"/>
            </g>
            <g transform="matrix(0.281419,-7.48893e-17,-7.48893e-17,-0.281419,821.026,1429.15)">
                <path d="M869.545,1315.1C761.699,1383.4 633.877,1422.96 496.889,1422.96" style="fill:none;stroke:black;stroke-width:14.81px;"/>
            </g>
            <g transform="matrix(0.0811168,-3.57472e-18,3.57472e-18,0.0811168,879.345,983.469)">
                <path d="M1004.9,557.416C1406.66,557.416 1732.83,883.59 1732.83,1285.35C1732.83,1417.86 1697.35,1542.15 1635.37,1649.23" style="fill:none;stroke:black;stroke-width:51.37px;"/>
            </g>
            <g transform="matrix(-0.0811168,-9.93394e-18,9.93394e-18,-0.0811168,1178.73,1113.28)">
                <circle cx="1004.9" cy="1285.35" r="727.928" style="fill:none;stroke:black;stroke-width:51.37px;"/>
            </g>
            <g transform="matrix(0.065608,-0.113636,0.113636,0.065608,1242.13,1291.81)">
                <path d="M2097.61,813.699C2097.61,813.699 2097.61,813.699 2097.61,813.699C1970.24,1034.32 1907.81,1286.45 1917.52,1541.02C1918.03,1548.53 1918.17,1556.09 1918.17,1563.67C1918.17,1571.26 1918.03,1578.82 1917.75,1586.34C1908.04,1840.86 1970.46,2092.95 2097.82,2313.53C2097.61,2313.65 2097.61,2313.65 2097.61,2313.65" style="fill:none;stroke:black;stroke-width:31.75px;"/>
            </g>
            <g transform="matrix(-0.131216,-1.61449e-17,3.22898e-17,-0.131216,1679.27,1449.78)">
                <path d="M2097.61,813.699C2097.61,813.699 2097.61,813.699 2097.61,813.699C1970.24,1034.32 1907.81,1286.45 1917.52,1541.02C1918.03,1548.53 1918.17,1556.09 1918.17,1563.67C1918.17,1571.26 1918.03,1578.82 1917.75,1586.34C1908.04,1840.86 1970.46,2092.95 2097.82,2313.53C2097.61,2313.65 2097.61,2313.65 2097.61,2313.65" style="fill:none;stroke:black;stroke-width:31.75px;"/>
            </g>
            <g transform="matrix(0.065608,0.113636,-0.113636,0.065608,1597.51,992.222)">
                <path d="M2097.61,813.699C2097.61,813.699 2097.61,813.699 2097.61,813.699C1970.24,1034.32 1907.81,1286.45 1917.52,1541.02C1918.03,1548.53 1918.17,1556.09 1918.17,1563.67C1918.17,1571.26 1918.03,1578.82 1917.75,1586.34C1908.04,1840.86 1970.46,2092.95 2097.82,2313.53C2097.61,2313.65 2097.61,2313.65 2097.61,2313.65" style="fill:none;stroke:black;stroke-width:31.75px;"/>
            </g>
            <g transform="matrix(0.0270389,-0.0468328,0.0468328,0.0270389,1418.94,1256.91)">
                <circle cx="1004.9" cy="1285.35" r="727.928" style="fill:none;stroke:black;stroke-width:77.05px;"/>
            </g>
            <g transform="matrix(0.065608,-0.113636,0.113636,0.065608,1242.13,1291.81)">
                <path d="M2097.61,813.699C2097.61,813.699 2097.61,813.699 2097.61,813.699C1970.24,1034.32 1907.81,1286.45 1917.52,1541.02C1918.03,1548.53 1918.17,1556.09 1918.17,1563.67C1918.17,1571.26 1918.03,1578.82 1917.75,1586.34C1908.04,1840.86 1970.46,2092.95 2097.82,2313.53C2097.61,2313.65 2097.61,2313.65 2097.61,2313.65" style="fill:none;stroke:black;stroke-width:31.75px;"/>
            </g>
            <g transform="matrix(0.065608,0.113636,-0.113636,0.065608,1597.51,992.222)">
                <path d="M2097.61,813.699C2097.61,813.699 2097.61,813.699 2097.61,813.699C1970.24,1034.32 1907.81,1286.45 1917.52,1541.02C1918.03,1548.53 1918.17,1556.09 1918.17,1563.67C1918.17,1571.26 1918.03,1578.82 1917.75,1586.34C1908.04,1840.86 1970.46,2092.95 2097.82,2313.53C2097.61,2313.65 2097.61,2313.65 2097.61,2313.65" style="fill:none;stroke:black;stroke-width:31.75px;"/>
            </g>
            <g transform="matrix(0.0270389,-0.0468328,0.0468328,0.0270389,1418.94,1256.91)">
                <circle cx="1004.9" cy="1285.35" r="727.928" style="fill:none;stroke:black;stroke-width:77.05px;"/>
            </g>
            <g transform="matrix(0.140709,-0.243716,0.243716,0.140709,1004.36,1273.72)">
                <path d="M869.545,1315.1C761.699,1383.4 633.877,1422.96 496.889,1422.96" style="fill:none;stroke:black;stroke-width:14.81px;"/>
            </g>
            <g transform="matrix(0.140709,-0.243716,-0.243716,-0.140709,1732.06,1693.86)">
                <path d="M869.545,1315.1C761.699,1383.4 633.877,1422.96 496.889,1422.96" style="fill:none;stroke:black;stroke-width:14.81px;"/>
            </g>
            <g transform="matrix(0.140709,0.243716,-0.243716,0.140709,1732.06,795.346)">
                <path d="M869.545,1315.1C761.699,1383.4 633.877,1422.96 496.889,1422.96" style="fill:none;stroke:black;stroke-width:14.81px;"/>
            </g>
            <g transform="matrix(0.140709,0.243716,0.243716,-0.140709,1004.36,1215.49)">
                <path d="M869.545,1315.1C761.699,1383.4 633.877,1422.96 496.889,1422.96" style="fill:none;stroke:black;stroke-width:14.81px;"/>
            </g>
            <g transform="matrix(-0.281419,1.13014e-16,-8.07246e-17,-0.281419,1782.5,1664.74)">
                <path d="M869.545,1315.1C761.699,1383.4 633.877,1422.96 496.889,1422.96" style="fill:none;stroke:black;stroke-width:14.81px;"/>
            </g>
            <g transform="matrix(-0.281419,1.13014e-16,8.07246e-17,0.281419,1782.5,824.463)">
                <path d="M869.545,1315.1C761.699,1383.4 633.877,1422.96 496.889,1422.96" style="fill:none;stroke:black;stroke-width:14.81px;"/>
            </g>
            <g transform="matrix(0.0405584,-0.0702492,0.0702492,0.0405584,1375.26,1263.07)">
                <circle cx="1004.9" cy="1285.35" r="727.928" style="fill:none;stroke:black;stroke-width:51.37px;"/>
            </g>
            <g transform="matrix(-0.0270389,-0.0468328,0.0468328,-0.0270389,791.464,1563.1)">
                <circle cx="1004.9" cy="1285.35" r="727.928" style="fill:none;stroke:black;stroke-width:77.05px;"/>
            </g>
            <g transform="matrix(-0.065608,-0.113636,0.113636,-0.065608,733.281,1733.66)">
                <path d="M2357.41,1863.67L2357.4,1863.67C2250.22,1863.67 2151.19,1920.85 2097.61,2013.66C2044.02,2106.48 2044.02,2220.83 2097.61,2313.64C2097.61,2313.65 2097.61,2313.65 2097.61,2313.65" style="fill:none;stroke:black;stroke-width:31.75px;"/>
            </g>
            <g transform="matrix(-0.065608,-0.113636,0.113636,-0.065608,733.281,1733.66)">
                <path d="M1578,2613.65C1578,2613.65 1578,2613.65 1577.99,2613.64C1524.41,2520.83 1425.38,2463.65 1318.2,2463.65C1211.03,2463.65 1112,2520.83 1058.41,2613.64C1058.41,2613.65 1058.41,2613.65 1058.41,2613.65" style="fill:none;stroke:black;stroke-width:31.75px;"/>
            </g>
            <g transform="matrix(-0.065608,-0.113636,0.113636,-0.065608,733.281,1733.66)">
                <path d="M538.794,2313.65C538.794,2313.65 538.798,2313.64 538.808,2313.63C592.386,2220.81 592.381,2106.47 538.794,2013.66C485.206,1920.85 386.178,1863.67 279.009,1863.67C279.003,1863.67 279,1863.67 279,1863.67" style="fill:none;stroke:black;stroke-width:31.75px;"/>
            </g>
            <g transform="matrix(-0.065608,-0.113636,0.113636,-0.065608,1007.08,1734.14)">
                <path d="M538.794,2313.65C538.794,2313.65 538.798,2313.64 538.808,2313.63C592.386,2220.81 592.381,2106.47 538.794,2013.66C485.206,1920.85 386.178,1863.67 279.009,1863.67C279.003,1863.67 279,1863.67 279,1863.67" style="fill:none;stroke:black;stroke-width:31.75px;"/>
            </g>
            <g transform="matrix(-0.065608,-0.113636,0.113636,-0.065608,733.281,1733.66)">
                <path d="M279,1263.67C279,1263.67 279,1263.67 279.001,1263.67C533.681,1263.67 783.169,1191.66 998.671,1055.93C1091.17,997.476 1200.76,963.675 1318.17,963.675C1435.59,963.675 1545.17,997.472 1637.71,1055.86C1853.22,1191.58 2102.72,1263.6 2357.41,1263.6C2357.41,1263.67 2357.41,1263.67 2357.41,1263.67" style="fill:none;stroke:black;stroke-width:31.75px;"/>
            </g>
            <g transform="matrix(-0.0405584,-0.0702492,0.0702492,-0.0405584,911.303,1682.73)">
                <path d="M1004.9,557.416C1406.66,557.416 1732.83,883.59 1732.83,1285.35C1732.83,1417.86 1697.35,1542.15 1635.37,1649.23" style="fill:none;stroke:black;stroke-width:51.37px;"/>
            </g>
            <g transform="matrix(-0.140709,-0.243716,0.243716,-0.140709,598.732,1930.54)">
                <path d="M869.545,1315.1C761.699,1383.4 633.877,1422.96 496.889,1422.96" style="fill:none;stroke:black;stroke-width:14.81px;"/>
            </g>
            <g transform="matrix(-0.140709,-0.243716,-0.243716,0.140709,1326.44,1510.4)">
                <path d="M869.545,1315.1C761.699,1383.4 635.333,1421.32 498.345,1421.32" style="fill:none;stroke:black;stroke-width:14.81px;"/>
            </g>
            <g transform="matrix(0.140709,0.243716,-0.243716,0.140709,1050.25,1032.02)">
                <path d="M869.545,1315.1C761.699,1383.4 633.877,1422.96 496.889,1422.96" style="fill:none;stroke:black;stroke-width:14.81px;"/>
            </g>
            <g transform="matrix(0.140709,0.243716,0.243716,-0.140709,322.542,1452.16)">
                <path d="M869.545,1315.1C761.699,1383.4 633.877,1422.96 496.889,1422.96" style="fill:none;stroke:black;stroke-width:14.81px;"/>
            </g>
            <g transform="matrix(-0.140709,0.243716,-0.243716,-0.140709,1326.44,1452.16)">
                <path d="M869.545,1315.1C761.699,1383.4 633.877,1422.96 496.889,1422.96" style="fill:none;stroke:black;stroke-width:14.81px;"/>
            </g>
            <g transform="matrix(-0.140709,0.243716,0.243716,0.140709,598.732,1032.02)">
                <path d="M869.545,1315.1C761.699,1383.4 633.877,1422.96 496.889,1422.96" style="fill:none;stroke:black;stroke-width:14.81px;"/>
            </g>
            <g transform="matrix(-0.281419,1.77594e-16,-1.45304e-16,-0.281419,1100.68,1901.42)">
                <path d="M869.545,1315.1C761.699,1383.4 633.877,1422.96 496.889,1422.96" style="fill:none;stroke:black;stroke-width:14.81px;"/>
            </g>
            <g transform="matrix(-0.281419,1.77594e-16,1.45304e-16,0.281419,1100.68,1061.14)">
                <path d="M869.545,1315.1C761.699,1383.4 633.877,1422.96 496.889,1422.96" style="fill:none;stroke:black;stroke-width:14.81px;"/>
            </g>
            <g transform="matrix(-0.0405584,0.0702492,-0.0702492,-0.0405584,955.545,1305.37)">
                <path d="M1004.9,557.416C1406.66,557.416 1732.83,883.59 1732.83,1285.35C1732.83,1417.86 1697.35,1542.15 1635.37,1649.23" style="fill:none;stroke:black;stroke-width:51.37px;"/>
            </g>
            <g transform="matrix(-0.0811168,-2.82536e-17,3.63261e-17,-0.0811168,1042.36,1506.82)">
                <path d="M1004.9,557.416C1406.66,557.416 1732.83,883.59 1732.83,1285.35C1732.83,1417.86 1697.35,1542.15 1635.37,1649.23" style="fill:none;stroke:black;stroke-width:51.37px;"/>
            </g>
            <g transform="matrix(-0.0405584,-0.0702492,0.0702492,-0.0405584,774.952,1604)">
                <circle cx="1004.9" cy="1285.35" r="727.928" style="fill:none;stroke:black;stroke-width:51.37px;"/>
            </g>
            <g transform="matrix(-0.0270389,-0.0468328,0.0468328,-0.0270389,1336.92,1563.1)">
                <circle cx="1004.9" cy="1285.35" r="727.928" style="fill:none;stroke:black;stroke-width:77.05px;"/>
            </g>
            <g transform="matrix(-0.065608,-0.113636,0.113636,-0.065608,1278.74,1733.66)">
                <path d="M1578,2613.65C1578,2613.65 1578,2613.65 1577.99,2613.64C1524.41,2520.83 1425.38,2463.65 1318.2,2463.65C1211.03,2463.65 1112,2520.83 1058.41,2613.64C1058.41,2613.65 1058.41,2613.65 1058.41,2613.65" style="fill:none;stroke:black;stroke-width:31.75px;"/>
            </g>
            <g transform="matrix(-0.065608,-0.113636,0.113636,-0.065608,1278.74,1733.66)">
                <path d="M538.794,2313.65C538.794,2313.65 538.798,2313.64 538.808,2313.63C592.386,2220.81 592.381,2106.47 538.794,2013.66C485.206,1920.85 386.178,1863.67 279.009,1863.67C279.003,1863.67 279,1863.67 279,1863.67" style="fill:none;stroke:black;stroke-width:31.75px;"/>
            </g>
            <g transform="matrix(-0.065608,-0.113636,0.113636,-0.065608,1278.74,1733.66)">
                <path d="M2097.61,813.699C2097.61,813.699 2097.61,813.699 2097.61,813.699C1970.24,1034.32 1907.81,1286.45 1917.52,1541.02C1918.03,1548.53 1918.17,1556.09 1918.17,1563.67C1918.17,1571.26 1918.03,1578.82 1917.75,1586.34C1908.04,1840.86 1970.46,2092.95 2097.82,2313.53C2097.61,2313.65 2097.61,2313.65 2097.61,2313.65" style="fill:none;stroke:black;stroke-width:31.75px;"/>
            </g>
            <g transform="matrix(-0.065608,0.113636,-0.113636,-0.065608,1634.12,1434.08)">
                <path d="M2097.61,813.699C2097.61,813.699 2097.61,813.699 2097.61,813.699C1970.24,1034.32 1907.81,1286.45 1917.52,1541.02C1918.03,1548.53 1918.17,1556.09 1918.17,1563.67C1918.17,1571.26 1918.03,1578.82 1917.75,1586.34C1908.04,1840.86 1970.46,2092.95 2097.82,2313.53C2097.61,2313.65 2097.61,2313.65 2097.61,2313.65" style="fill:none;stroke:black;stroke-width:31.75px;"/>
            </g>
            <g transform="matrix(-0.0405584,-0.0702492,0.0702492,-0.0405584,1456.76,1682.73)">
                <path d="M1004.9,557.416C1406.66,557.416 1732.83,883.59 1732.83,1285.35C1732.83,1417.86 1697.35,1542.15 1635.37,1649.23" style="fill:none;stroke:black;stroke-width:51.37px;"/>
            </g>
            <g transform="matrix(-0.140709,-0.243716,0.243716,-0.140709,1144.19,1930.54)">
                <path d="M869.545,1315.1C761.699,1383.4 633.877,1422.96 496.889,1422.96" style="fill:none;stroke:black;stroke-width:14.81px;"/>
            </g>
            <g transform="matrix(-0.140709,-0.243716,-0.243716,0.140709,1871.89,1510.4)">
                <path d="M869.545,1315.1C761.699,1383.4 633.877,1422.96 496.889,1422.96" style="fill:none;stroke:black;stroke-width:14.81px;"/>
            </g>
            <g transform="matrix(0.281419,2.91358e-17,1.45679e-17,0.281419,1093.75,1061.14)">
                <path d="M869.545,1315.1C761.699,1383.4 633.877,1422.96 496.889,1422.96" style="fill:none;stroke:black;stroke-width:14.81px;"/>
            </g>
            <g transform="matrix(0.281419,2.91358e-17,-1.45679e-17,-0.281419,1093.75,1901.42)">
                <path d="M869.545,1315.1C761.699,1383.4 633.877,1422.96 496.889,1422.96" style="fill:none;stroke:black;stroke-width:14.81px;"/>
            </g>
            <g transform="matrix(-0.140709,0.243716,-0.243716,-0.140709,1871.89,1452.16)">
                <path d="M869.545,1315.1C761.699,1383.4 633.877,1422.96 496.889,1422.96" style="fill:none;stroke:black;stroke-width:14.81px;"/>
            </g>
            <g transform="matrix(-0.140709,0.243716,0.243716,0.140709,1144.19,1032.02)">
                <path d="M869.545,1315.1C761.699,1383.4 633.877,1422.96 496.889,1422.96" style="fill:none;stroke:black;stroke-width:14.81px;"/>
            </g>
            <g transform="matrix(-0.281419,1.01975e-16,-1.45679e-16,-0.281419,1646.13,1901.42)">
                <path d="M869.545,1315.1C761.699,1383.4 633.877,1422.96 496.889,1422.96" style="fill:none;stroke:black;stroke-width:14.81px;"/>
            </g>
            <g transform="matrix(-0.281419,1.01975e-16,1.45679e-16,0.281419,1646.13,1061.14)">
                <path d="M869.545,1315.1C761.699,1383.4 633.877,1422.96 496.889,1422.96" style="fill:none;stroke:black;stroke-width:14.81px;"/>
            </g>
            <g transform="matrix(-0.0811168,-4.37037e-17,2.91358e-17,-0.0811168,1587.81,1506.82)">
                <path d="M1004.9,557.416C1406.66,557.416 1732.83,883.59 1732.83,1285.35C1732.83,1417.86 1697.35,1542.15 1635.37,1649.23" style="fill:none;stroke:black;stroke-width:51.37px;"/>
            </g>
            <g transform="matrix(-0.0405584,-0.0702492,0.0702492,-0.0405584,1320.41,1604)">
                <circle cx="1004.9" cy="1285.35" r="727.928" style="fill:none;stroke:black;stroke-width:51.37px;"/>
            </g>
            <g transform="matrix(0.065608,-0.113636,0.113636,0.065608,833.043,1528.48)">
                <path d="M2097.61,2313.65C2097.61,2313.65 2097.61,2313.65 2097.61,2313.65C1829.67,1849.56 1829.67,1277.79 2097.61,813.701C2097.61,813.699 2097.61,813.699 2097.61,813.699" style="fill:none;stroke:black;stroke-width:31.75px;"/>
            </g>
            <g transform="matrix(0.065608,-0.113636,0.113636,0.065608,833.043,1528.48)">
                <path d="M1578,513.699C1578,513.699 1578,513.701 1577.99,513.706C1524.41,606.52 1425.38,663.696 1318.2,663.696C1211.03,663.696 1112,606.52 1058.41,513.706C1058.41,513.701 1058.41,513.699 1058.41,513.699" style="fill:none;stroke:black;stroke-width:31.75px;"/>
            </g>
            <g transform="matrix(0.065608,-0.113636,0.113636,0.065608,833.043,1528.48)">
                <path d="M538.794,813.699C538.794,813.699 538.794,813.699 538.795,813.701C806.735,1277.79 806.735,1849.56 538.795,2313.65C538.794,2313.65 538.794,2313.65 538.794,2313.65" style="fill:none;stroke:black;stroke-width:31.75px;"/>
            </g>
            <g transform="matrix(0.0841634,-0.145775,0.145775,0.0841634,747.436,1537.73)">
                <circle cx="1329.46" cy="1631.89" r="233.859" style="fill:none;stroke:black;stroke-width:24.75px;"/>
            </g>
            <g transform="matrix(0.281419,6.45797e-17,-3.22898e-17,0.281419,821.026,1061.14)">
                <path d="M869.545,1315.1C761.699,1383.4 633.877,1422.96 496.889,1422.96" style="fill:none;stroke:black;stroke-width:14.81px;"/>
            </g>
            <g transform="matrix(0.281419,6.45797e-17,3.22898e-17,-0.281419,821.026,1901.42)">
                <path d="M869.545,1315.1C761.699,1383.4 633.877,1422.96 496.889,1422.96" style="fill:none;stroke:black;stroke-width:14.81px;"/>
            </g>
            <g transform="matrix(0.140709,0.243716,-0.243716,0.140709,1322.97,1032.02)">
                <path d="M869.545,1315.1C761.699,1383.4 633.877,1422.96 496.889,1422.96" style="fill:none;stroke:black;stroke-width:14.81px;"/>
            </g>
            <g transform="matrix(0.140709,0.243716,0.243716,-0.140709,595.269,1452.16)">
                <path d="M869.545,1315.1C761.699,1383.4 633.877,1422.96 496.889,1422.96" style="fill:none;stroke:black;stroke-width:14.81px;"/>
            </g>
            <g transform="matrix(-0.281419,6.45797e-17,-9.68695e-17,-0.281419,1373.41,1901.42)">
                <path d="M869.545,1315.1C761.699,1383.4 633.877,1422.96 496.889,1422.96" style="fill:none;stroke:black;stroke-width:14.81px;"/>
            </g>
            <g transform="matrix(-0.281419,6.45797e-17,9.68695e-17,0.281419,1373.41,1061.14)">
                <path d="M869.545,1315.1C761.699,1383.4 633.877,1422.96 496.889,1422.96" style="fill:none;stroke:black;stroke-width:14.81px;"/>
            </g>
            <g transform="matrix(-0.140709,-0.243716,0.243716,-0.140709,871.459,1930.54)">
                <path d="M869.545,1315.1C761.699,1383.4 636.37,1428.45 499.381,1428.45" style="fill:none;stroke:black;stroke-width:14.81px;"/>
            </g>
            <g transform="matrix(-0.140709,-0.243716,-0.243716,0.140709,1599.16,1510.4)">
                <path d="M869.545,1315.1C761.699,1383.4 633.877,1422.96 496.889,1422.96" style="fill:none;stroke:black;stroke-width:14.81px;"/>
            </g>
            <g transform="matrix(0.0405584,0.0702492,-0.0702492,0.0405584,1010.4,1279.83)">
                <path d="M1004.9,557.416C1406.66,557.416 1732.83,883.59 1732.83,1285.35C1732.83,1417.86 1697.35,1542.15 1635.37,1649.23" style="fill:none;stroke:black;stroke-width:51.37px;"/>
            </g>
            <g transform="matrix(-0.0405584,-0.0702492,0.0702492,-0.0405584,1184.03,1682.73)">
                <path d="M1004.9,557.416C1406.66,557.416 1732.83,883.59 1732.83,1285.35C1732.83,1417.86 1697.35,1542.15 1635.37,1649.23" style="fill:none;stroke:black;stroke-width:51.37px;"/>
            </g>
            <g transform="matrix(0.0405584,-0.0702492,0.0702492,0.0405584,966.164,1499.74)">
                <circle cx="1004.9" cy="1285.35" r="727.928" style="fill:none;stroke:black;stroke-width:51.37px;"/>
            </g>
            <g transform="matrix(-0.0270389,0.0468328,-0.0468328,-0.0270389,1048.22,1232.3)">
                <circle cx="1004.9" cy="1285.35" r="727.928" style="fill:none;stroke:black;stroke-width:77.05px;"/>
            </g>
            <g transform="matrix(-0.065608,0.113636,-0.113636,-0.065608,1225.03,1197.4)">
                <path d="M279,1263.67C583.516,1265.6 925.004,1098.91 1014.3,1046.31C1103.44,993.804 1429.92,774.251 1578,513.699" style="fill:none;stroke:black;stroke-width:31.75px;"/>
            </g>
            <g transform="matrix(-0.065608,0.113636,-0.113636,-0.065608,1225.03,1197.4)">
                <path d="M2097.61,813.699C2097.61,813.699 2097.61,813.701 2097.61,813.706C2044.02,906.52 2044.02,1020.87 2097.61,1113.68C2151.19,1206.5 2250.22,1263.67 2357.4,1263.67C2357.4,1263.67 2357.41,1263.67 2357.41,1263.67" style="fill:none;stroke:black;stroke-width:31.75px;"/>
            </g>
            <g transform="matrix(-0.065608,0.113636,-0.113636,-0.065608,1225.03,1197.4)">
                <path d="M2357.41,1863.67L2357.4,1863.67C2250.22,1863.67 2151.19,1920.85 2097.61,2013.66C2044.02,2106.48 2044.02,2220.83 2097.61,2313.64C2097.61,2313.65 2097.61,2313.65 2097.61,2313.65" style="fill:none;stroke:black;stroke-width:31.75px;"/>
            </g>
            <g transform="matrix(-0.065608,0.113636,-0.113636,-0.065608,1225.03,1197.4)">
                <path d="M1578,2613.65C1578,2613.65 1578,2613.65 1577.99,2613.64C1524.41,2520.83 1425.38,2463.65 1318.2,2463.65C1211.03,2463.65 1112,2520.83 1058.41,2613.64C1058.41,2613.65 1058.41,2613.65 1058.41,2613.65" style="fill:none;stroke:black;stroke-width:31.75px;"/>
            </g>
            <g transform="matrix(-0.065608,0.113636,-0.113636,-0.065608,1225.03,1197.4)">
                <path d="M538.794,2313.65C538.794,2313.65 538.798,2313.64 538.808,2313.63C592.386,2220.81 592.381,2106.47 538.794,2013.66C485.206,1920.85 386.178,1863.67 279.009,1863.67C279.003,1863.67 279,1863.67 279,1863.67" style="fill:none;stroke:black;stroke-width:31.75px;"/>
            </g>
            <g transform="matrix(-0.0405584,0.0702492,-0.0702492,-0.0405584,1091.91,1068.69)">
                <path d="M1004.9,557.416C1406.66,557.416 1732.83,883.59 1732.83,1285.35C1732.83,1417.86 1697.35,1542.15 1635.37,1649.23" style="fill:none;stroke:black;stroke-width:51.37px;"/>
            </g>
            <g transform="matrix(-0.140709,0.243716,-0.243716,-0.140709,1462.8,1215.49)">
                <path d="M869.545,1315.1C761.699,1383.4 633.877,1422.96 496.889,1422.96" style="fill:none;stroke:black;stroke-width:14.81px;"/>
            </g>
            <g transform="matrix(-0.140709,0.243716,0.243716,0.140709,735.095,795.346)">
                <path d="M869.545,1315.1C761.699,1383.4 633.877,1422.96 496.889,1422.96" style="fill:none;stroke:black;stroke-width:14.81px;"/>
            </g>
            <g transform="matrix(-0.140709,-0.243716,0.243716,-0.140709,735.095,1693.86)">
                <path d="M869.545,1315.1C761.699,1383.4 633.877,1422.96 496.889,1422.96" style="fill:none;stroke:black;stroke-width:14.81px;"/>
            </g>
            <g transform="matrix(-0.140709,-0.243716,-0.243716,0.140709,1462.8,1273.72)">
                <path d="M869.545,1315.1C761.699,1383.4 633.877,1422.96 496.889,1422.96" style="fill:none;stroke:black;stroke-width:14.81px;"/>
            </g>
            <g transform="matrix(0.140709,-0.243716,0.243716,0.140709,458.905,1273.72)">
                <path d="M869.545,1315.1C761.699,1383.4 633.877,1422.96 496.889,1422.96" style="fill:none;stroke:black;stroke-width:14.81px;"/>
            </g>
            <g transform="matrix(0.140709,-0.243716,-0.243716,-0.140709,1186.61,1693.86)">
                <path d="M869.545,1315.1C761.699,1383.4 633.877,1422.96 496.889,1422.96" style="fill:none;stroke:black;stroke-width:14.81px;"/>
            </g>
            <g transform="matrix(0.281419,-2.42174e-16,2.09884e-16,0.281419,684.662,824.463)">
                <path d="M869.545,1315.1C761.699,1383.4 633.877,1422.96 496.889,1422.96" style="fill:none;stroke:black;stroke-width:14.81px;"/>
            </g>
            <g transform="matrix(0.281419,-2.42174e-16,-2.09884e-16,-0.281419,684.662,1664.74)">
                <path d="M869.545,1315.1C761.699,1383.4 633.877,1422.96 496.889,1422.96" style="fill:none;stroke:black;stroke-width:14.81px;"/>
            </g>
            <g transform="matrix(0.140709,0.243716,-0.243716,0.140709,1186.61,795.346)">
                <path d="M869.545,1315.1C761.699,1383.4 633.877,1422.96 496.889,1422.96" style="fill:none;stroke:black;stroke-width:14.81px;"/>
            </g>
            <g transform="matrix(0.140709,0.243716,0.243716,-0.140709,458.905,1215.49)">
                <path d="M869.545,1315.1C761.699,1383.4 633.877,1422.96 496.889,1422.96" style="fill:none;stroke:black;stroke-width:14.81px;"/>
            </g>
            <g transform="matrix(0.0405584,-0.0702492,0.0702492,0.0405584,829.796,1420.51)">
                <path d="M1004.9,557.416C1406.66,557.416 1732.83,883.59 1732.83,1285.35C1732.83,1417.86 1697.35,1542.15 1635.37,1649.23" style="fill:none;stroke:black;stroke-width:51.37px;"/>
            </g>
            <g transform="matrix(0.0811168,-7.66884e-17,6.86159e-17,0.0811168,742.982,1219.06)">
                <path d="M1004.9,557.416C1406.66,557.416 1732.83,883.59 1732.83,1285.35C1732.83,1417.86 1697.35,1542.15 1635.37,1649.23" style="fill:none;stroke:black;stroke-width:51.37px;"/>
            </g>
            <g transform="matrix(0.0405584,0.0702492,-0.0702492,0.0405584,874.038,1043.15)">
                <path d="M1004.9,557.416C1406.66,557.416 1732.83,883.59 1732.83,1285.35C1732.83,1417.86 1697.35,1542.15 1635.37,1649.23" style="fill:none;stroke:black;stroke-width:51.37px;"/>
            </g>
            <g transform="matrix(-0.0405584,0.0702492,-0.0702492,-0.0405584,1091.9,1226.14)">
                <circle cx="1004.9" cy="1285.35" r="727.928" style="fill:none;stroke:black;stroke-width:51.37px;"/>
            </g>
            <g transform="matrix(-0.131216,-1.61449e-17,3.22898e-17,-0.131216,1679.27,1449.78)">
                <path d="M2097.61,813.699C2097.61,813.699 2097.61,813.699 2097.61,813.699C1970.24,1034.32 1907.81,1286.45 1917.52,1541.02C1918.03,1548.53 1918.17,1556.09 1918.17,1563.67C1918.17,1571.26 1918.03,1578.82 1917.75,1586.34C1908.04,1840.86 1970.46,2092.95 2097.82,2313.53C2097.61,2313.65 2097.61,2313.65 2097.61,2313.65" style="fill:none;stroke:black;stroke-width:31.75px;"/>
            </g>
        </g>
    </g>
</svg>
